<svg id="Layer_1" data-name="Layer 1" xmlns="http://www.w3.org/2000/svg" xmlns:xlink="http://www.w3.org/1999/xlink" viewBox="0 0 100 100"><defs><style>.cls-1{fill:url(#linear-gradient);}.cls-2{fill:#fff;fill-rule:evenodd;}</style><linearGradient id="linear-gradient" x1="50" x2="50" y2="100" gradientUnits="userSpaceOnUse"><stop offset="0" stop-color="#7737ff"/><stop offset="1" stop-color="#b946f9"/></linearGradient></defs><title>AEC</title><path class="cls-1" d="M50,2.31,91.3,26.15v47.7L50,97.69,8.7,73.85V26.15L50,2.31M50,0,6.7,25V75L50,100,93.3,75V25L50,0Z"/><path class="cls-2" d="M43.68,48.37,38,42.7l-1.84.08a1.1,1.1,0,0,1-.89-.41L29.2,34.85a1.09,1.09,0,0,1,.07-1.46l4.09-4.07a1.09,1.09,0,0,1,1.46-.07l7.49,6.12a1.11,1.11,0,0,1,.4,1l-.09,1.76,5.65,5.67,4.09-4.1a9.37,9.37,0,0,1,2.7-7.56h0a9.31,9.31,0,0,1,4.66-2.54A9.43,9.43,0,0,1,65,30a1.11,1.11,0,0,1,.64,1.42,1,1,0,0,1-.25.38l-3.87,3.88.74,2.46,2.47.75L68.63,35a1.09,1.09,0,0,1,1.55,0,1,1,0,0,1,.27.43,9.4,9.4,0,0,1-2.14,9.93l-.07.06a9.33,9.33,0,0,1-3.68,2.23,9.48,9.48,0,0,1-4,.38L59,49.61,69.68,60.32h0l.07.07a3.54,3.54,0,0,1-.08,4.93h0l-.06.06-4.4,4.39a3.56,3.56,0,0,1-5,0L49.56,59.07,47.93,60.7a9.4,9.4,0,0,1-2.7,7.56h0a9.4,9.4,0,0,1-10,2.12A1.1,1.1,0,0,1,34.62,69a1.3,1.3,0,0,1,.25-.39l3.88-3.87L38,62.25l-2.46-.75-3.88,3.87a1.09,1.09,0,0,1-1.55,0,1.11,1.11,0,0,1-.27-.43,9.48,9.48,0,0,1-.39-5.27A9.29,9.29,0,0,1,32,55l.07-.06a9.22,9.22,0,0,1,3.68-2.23,9.33,9.33,0,0,1,4-.39l4-4ZM49.13,46l-.09.1L49,46.2l-8.1,8.1a1.1,1.1,0,0,1-1.31.22,7.27,7.27,0,0,0-3.14.28,7,7,0,0,0-2.81,1.71l-.05.05a7.14,7.14,0,0,0-1.95,3.57,7.22,7.22,0,0,0-.11,2.32l3-3h0a1.11,1.11,0,0,1,1.09-.27l3.65,1.11a1.11,1.11,0,0,1,.73.73L41,64.61a1.11,1.11,0,0,1-.24,1.19l-3,3a7.13,7.13,0,0,0,5.88-2.06h0a7.13,7.13,0,0,0,1.75-2.86,7.24,7.24,0,0,0,.26-3.3,1.09,1.09,0,0,1,.36-1.07L59.44,46.08a1.1,1.1,0,0,1,1.32-.22,7.18,7.18,0,0,0,5.94-2l0,0a7.14,7.14,0,0,0,2.06-5.89l-3,3h0a1.08,1.08,0,0,1-1.09.28L61.1,40.05a1.07,1.07,0,0,1-.73-.73l-1.08-3.55a1.1,1.1,0,0,1,.24-1.19l3-3a7.16,7.16,0,0,0-5.88,2.05h0a7.11,7.11,0,0,0-1.76,2.86,7.28,7.28,0,0,0-.26,3.31,1.1,1.1,0,0,1-.36,1.07L49.13,46Zm-2.41-.68-6-6a1.1,1.1,0,0,1-.32-.82l.09-1.78-6.3-5.15-2.68,2.67,5.12,6.32,1.76-.07a1.1,1.1,0,0,1,.84.32l6,6,1.5-1.5Zm10.74,5.83-2.38,2.39L66.67,65.22l1.4-1.39.05-.06h0a1.33,1.33,0,0,0,.39-1,1.39,1.39,0,0,0-.35-.91l0,0L57.46,51.16ZM53.53,55.1l-2.42,2.42L61.76,68.21a1.36,1.36,0,0,0,1,.4,1.3,1.3,0,0,0,.95-.4l1.46-1.44Z"/></svg>