<svg xmlns="http://www.w3.org/2000/svg" viewBox="0 0 440.43 353.77"><defs><style>.cls-1{isolation:isolate;}.cls-2{fill:#d6d4de;}.cls-3{opacity:0.1;}.cls-4{fill:#09425e;}.cls-5{fill:#100928;}.cls-6{fill:#3f29aa;}.cls-7{fill:#5f3eff;}.cls-8{fill:#d4e3e6;}.cls-21,.cls-9{fill:#fff;}.cls-10{fill:#b946f9;}.cls-11,.cls-22{opacity:0.2;}.cls-11,.cls-18{mix-blend-mode:multiply;}.cls-12{fill:#271763;}.cls-13{fill:#8f4ee8;}.cls-14{fill:#8282a7;}.cls-15{fill:#757595;}.cls-16{fill:#272733;}.cls-17{fill:none;}.cls-18{fill:#ccd;}.cls-19{fill:#54546c;}.cls-20{opacity:0.45;}.cls-21{opacity:0.42;}</style></defs><title>contact</title><g class="cls-1"><g id="Layer_2" data-name="Layer 2"><g id="Layer_1-2" data-name="Layer 1"><polygon class="cls-2" points="172 304.12 172 204.81 86 155.16 0 204.81 0 304.12 86 353.77 172 304.12"/><polygon class="cls-2" points="351 304.12 351 204.81 265 155.16 179 204.81 179 304.12 265 353.77 351 304.12"/><polygon class="cls-2" points="261.56 148.96 261.56 49.65 175.56 0 89.56 49.65 89.56 148.96 175.56 198.61 261.56 148.96"/><polygon class="cls-2" points="440.43 148.96 440.43 49.65 354.43 0 268.43 49.65 268.43 148.96 354.43 198.61 440.43 148.96"/><g class="cls-3"><g class="cls-1"><path d="M387.45,92.69a2.49,2.49,0,0,1-2.27-.06L373,85.12l-2.55-1.56a.7.7,0,0,1,0-1.32l1.33-.72,8.78-4.79a2.52,2.52,0,0,1,2.27.07l14.75,9.07a.7.7,0,0,1,0,1.32Z"/><path d="M419.89,96.59,365.82,63.33a4.19,4.19,0,0,0-3.79-.1L325.74,83.89a1.16,1.16,0,0,0-.05,2.19l5,2.77,1.89-1,44.86,27.6-.95.51-.94.52,4.58,2.81a4.13,4.13,0,0,0,3.78.11l36-20.59C420.9,98.21,420.92,97.23,419.89,96.59Zm-22.32-9.4-10.12,5.5a2.49,2.49,0,0,1-2.27-.06L373,85.12l-2.55-1.56a.7.7,0,0,1,0-1.32l1.33-.72,8.78-4.79a2.52,2.52,0,0,1,2.27.07l14.75,9.07A.7.7,0,0,1,397.57,87.19Z"/></g></g><path class="cls-4" d="M313.32,101.25a.7.7,0,0,1,0-1.32l15.39-8.38.85-.46a2.49,2.49,0,0,1,2.27.06l43.32,26.65a.69.69,0,0,1,0,1.31L358.9,128a2.52,2.52,0,0,1-2.27-.07l-20-12.29Z"/><path class="cls-4" d="M323.21,111.19a2.49,2.49,0,0,1,2.27.06l12.2,7.51,2.55,1.56a.7.7,0,0,1,0,1.32l-1.33.72-8.78,4.78a2.49,2.49,0,0,1-2.27-.06L313.07,118a.7.7,0,0,1,0-1.32Z"/><g class="cls-1"><path class="cls-5" d="M333,37.3l52.78,32.8A3.58,3.58,0,0,1,387.29,73l-1.72,44.77L329.57,83l1.72-44.78C331.32,37.15,332.07,36.75,333,37.3Z"/><path class="cls-6" d="M333.49,36.71l52.78,32.8a3.57,3.57,0,0,1,1.55,2.87L386.65,116a2.06,2.06,0,0,1-1.08,1.76L387.29,73a3.58,3.58,0,0,0-1.55-2.87L333,37.3a1.16,1.16,0,0,0-1.16-.15l.53-.58A1.15,1.15,0,0,1,333.49,36.71Z"/></g><path class="cls-5" d="M289.89,104V104a.25.25,0,0,0,0,.08s0,0,0,.07,0,0,0,.08l0,.07,0,.08,0,.06a.24.24,0,0,0,.06.09l.08.12h0l.1.1.07.06a.27.27,0,0,0,.08.07l.08.06.14.09,54.07,33.26a1.59,1.59,0,0,0,.26.14l.07,0,.23.09.06,0,.12,0,.12,0,.11,0,.12,0,.3.05h.09l.19,0h.89l.14,0,.11,0,.17,0,.09,0a2.46,2.46,0,0,0,.29-.09l.14,0,.08,0,.2-.1,36.29-20.67a1.31,1.31,0,0,0,.81-1.06l-.05,1.85a1.35,1.35,0,0,1-.81,1.06l-36.27,19.65-.2.1-.07,0-.14.05h0l-.29.09h-.1l-.16,0h-.11l-.14,0h-.9l-.18,0h-.09l-.3,0h0l-.1,0-.12,0-.12,0-.11,0h0l0,0-.24-.09-.07,0-.26-.14-54.07-33.26-.09,0a.1.1,0,0,0,0,0l-.08-.06-.08-.07-.06-.06s0,0,0,0a.23.23,0,0,1-.07-.07h0l-.08-.1v0l-.06-.09,0,0h0a.59.59,0,0,1,0-.08.14.14,0,0,0,0-.06h0a.24.24,0,0,1,0-.08s0,0,0-.06h0v-.08a.13.13,0,0,1,0-.06v0Z"/><g class="cls-1"><path class="cls-7" d="M323.08,109.06a2.49,2.49,0,0,1,2.27.06l12.2,7.51,2.55,1.56c.62.39.61,1,0,1.32l-1.33.73L330,125a2.52,2.52,0,0,1-2.27-.07l-14.75-9.07a.7.7,0,0,1,0-1.32Z"/><path class="cls-6" d="M290.64,105.16l54.07,33.26a4.19,4.19,0,0,0,3.79.1l36.29-20.66a1.16,1.16,0,0,0,0-2.19l-5-2.77-1.89,1-44.86-27.6.95-.51.94-.52-4.58-2.81a4.17,4.17,0,0,0-3.78-.11l-36,20.59C289.63,103.54,289.61,104.52,290.64,105.16Zm22.33,9.4,10.11-5.5a2.49,2.49,0,0,1,2.27.06l12.2,7.51,2.55,1.56c.62.39.61,1,0,1.32l-1.33.73L330,125a2.52,2.52,0,0,1-2.27-.07l-14.75-9.07A.7.7,0,0,1,313,114.56Z"/></g><polygon class="cls-5" points="379.88 112.9 377.99 113.93 333.13 86.33 335.02 85.3 379.88 112.9"/><polygon class="cls-8" points="384.16 73.26 383.08 111.77 332.84 80.86 333.88 41.98 384.16 73.26"/><g class="cls-1"><polygon class="cls-9" points="384.17 72.96 383.07 112.1 332.73 81.19 333.94 42.05 384.17 72.96"/></g><path class="cls-10" d="M327.91,89.15l.85-.46a2.49,2.49,0,0,1,2.27.06l43.31,26.65c.62.38.61,1,0,1.31l-16.24,8.85a2.52,2.52,0,0,1-2.27-.07l-20-12.29L312.48,98.85a.7.7,0,0,1,0-1.32Z"/><g id="VR_Headset"><path class="cls-11" d="M137.45,111.81s-.49,0-.49,1.27.24,5.3.24,5.3,0,.79,1.09,1.66,5.32,8.26,10.06,11,4,1.68,7.37,3.49,6.45,2.49,7,3.49,8.76,2.44,9.88,1.77,4.95-2.83,6.06-3.37a10.79,10.79,0,0,0,1.19-.66.53.53,0,0,0,.25-.45v-.72a.53.53,0,0,1,.23-.44,28.75,28.75,0,0,0,2.58-2,16.55,16.55,0,0,0,1.68-1.86.56.56,0,0,1,.44-.21,24.29,24.29,0,0,0,4.89-.31c1.63-.41,2.9-1.14,3-1.57s-.23-1,.21-1.17,10.76-7.66,11.89-8.41,8.31-6,10-7.37a41.88,41.88,0,0,0,6-5.44,16,16,0,0,0,3.25-7.44,18.59,18.59,0,0,0-.56-7.47c-.43-1.68-3-4.33-3.68-5a.57.57,0,0,1-.16-.35l-.05-1a.54.54,0,0,0-.27-.44l-8-4.59a.52.52,0,0,0-.55,0l-.57.34a.54.54,0,0,1-.48,0l-1.34-.52a.45.45,0,0,0-.2,0h-1.09c-.28-.07-1.54-.35-2.78-.61-1-.22-1.73-.35-2-.41a.21.21,0,0,1-.19-.19l0-.21a.24.24,0,0,0-.22-.2l-6.87-.28a.24.24,0,0,0-.24.18l-.05.23a.23.23,0,0,1-.22.18,59.71,59.71,0,0,0-13.43,2,120.13,120.13,0,0,0-14.38,6.15L161.68,89l-2.06,4.49,1.68-.89s8.12-4,11.5-5.53a72.7,72.7,0,0,1,10-3.87,84.84,84.84,0,0,1,10.86-1.68,7.92,7.92,0,0,1,2,0l.13.34A.24.24,0,0,0,196,82l2.14,0s-8.47,3.76-15.11,7.69-12.34,7.74-12.34,7.74l13.86.92s.57-1,3.6-2.82a131.06,131.06,0,0,1,12.94-7c4.6-2.1,9.06-3.67,9.76-3.91a.22.22,0,0,1,.18,0c.77.4,6.2,3.27,7.23,4.4s4.4,5.11,4.51,6.71-.73,6-5.52,9.72S199,119.22,197.54,120.2s-4.81,3.32-4.81,3.32H181.8Z"/><polygon class="cls-6" points="192.87 105.2 192.38 104.08 191.58 103.1 190.51 102.33 189.24 101.81 187.82 101.54 186.34 101.56 184.62 101.67 182.9 101.74 181.19 101.76 179.48 101.74 177.78 101.67 176.1 101.56 174.43 101.41 172.78 101.22 171.16 100.98 169.56 100.71 167.99 100.39 166.45 100.03 164.95 99.63 163.49 99.19 162.06 98.72 160.68 98.2 159.35 97.66 158.38 97.22 158.06 97.72 157.86 98.04 158.06 98.14 159.35 98.73 160.68 99.28 162.06 99.79 163.49 100.26 163.77 100.35 164.95 100.71 166.45 101.11 166.59 101.14 167.99 101.49 169.31 101.78 169.56 101.83 171.16 102.15 171.91 102.28 172.78 102.43 174.08 102.63 174.33 102.67 174.25 102.74 174.36 102.68 174.43 102.69 176.1 102.93 176.37 102.96 176.61 103 177.78 103.16 178.18 103.2 178.58 103.25 179.48 103.38 179.77 103.41 180.26 103.48 181.14 103.6 181.19 103.61 181.67 103.69 182.32 103.79 182.84 103.91 182.9 103.92 183.31 103.99 183.79 104.13 184.12 104.21 184.36 104.29 184.62 104.39 184.77 104.45 184.94 104.52 185.29 104.7 185.57 104.91 185.68 104.99 185.75 105.06 185.96 105.3 186.1 105.56 186.15 105.64 186.24 105.92 186.27 106 186.32 106.31 186.34 106.39 186.34 106.47 186.34 106.47 186.35 106.5 186.35 106.53 186.35 111.52 193.04 108.28 193.04 106.42 192.87 105.2"/><polygon class="cls-6" points="186.35 125.36 186.34 125.43 186.34 125.48 186.34 125.51 186.28 125.82 186.27 125.9 186.17 126.2 186.15 126.28 186 126.56 185.96 126.64 185.89 126.72 185.68 126.99 184.62 127.95 182.9 129.52 181.8 130.52 182.9 130.51 184.62 130.44 186.34 130.33 187.82 130.03 189.24 129.47 190.51 128.67 191.58 127.67 192.38 126.53 192.87 125.3 193.04 124.04 193.04 119.29 186.35 122.43 186.35 125.36"/><polygon class="cls-6" points="137.79 85.11 138.04 85.27 138.06 85.29 138.43 85.55 138.71 85.75 138.85 85.84 138.93 85.89 139.55 86.34 139.81 86.53 140.25 86.87 140.3 86.91 140.92 87.36 141.21 87.58 141.83 88.05 142.21 88.33 142.27 88.37 143.47 89.27 143.51 89.3 143.69 89.43 144.94 90.35 145.15 90.51 145.39 90.67 146.58 91.53 146.89 91.75 147.33 92.06 148.13 92.61 149.13 91.64 149.01 91.5 148.32 90.64 148.26 90.56 147.69 89.77 147.23 89.03 147.14 88.89 146.66 88.01 146.47 87.59 146.25 87.12 145.99 86.42 145.94 86.28 145.92 86.28 145.82 86.33 145.92 86.27 145.93 86.26 145.92 86.23 145.66 85.35 145.63 85.21 145.6 85.09 145.47 84.5 145.44 84.3 145.42 84.11 145.36 83.68 145.35 83.54 145.34 83.32 145.32 82.92 145.32 82.91 145.32 82.72 145.32 82.45 145.32 82.28 145.32 82.12 145.32 82.01 145.32 81.92 145.32 81.88 145.32 81.83 139.28 84.07 138.97 84.18 137.58 84.98 137.64 85.01 137.79 85.11"/><polygon class="cls-12" points="160.68 98.2 162.06 98.72 163.49 99.19 164.95 99.63 166.45 100.03 167.99 100.39 169.56 100.71 171.16 100.98 172.78 101.22 174.43 101.41 176.1 101.56 177.78 101.67 179.48 101.74 181.19 101.76 182.9 101.74 184.62 101.67 186.34 101.56 187.82 101.54 189.24 101.81 190.51 102.33 191.58 103.1 192.38 104.08 192.87 105.2 191.52 100.97 191.03 99.84 190.22 98.87 189.16 98.1 187.89 97.57 186.47 97.31 184.97 97.33 184.78 97.34 183.39 97.39 182.01 97.41 180.62 97.4 179.25 97.34 177.88 97.26 176.53 97.13 175.19 96.98 173.88 96.78 172.58 96.56 171.3 96.3 170.05 96.01 168.83 95.69 167.64 95.33 166.48 94.94 165.35 94.52 164.27 94.08 163.22 93.6 162.21 93.09 161.3 92.59 159.76 95.04 158.38 97.22 159.35 97.66 160.68 98.2"/><polygon class="cls-6" points="156.99 82.75 158.31 80.7 159.45 78.94 161.91 75.29 162.08 75.06 163.81 72.65 162.08 73.56 158.31 75.55 154.44 77.62 153.93 77.89 153.96 77.93 154.11 78.53 154.2 79.42 154.23 80.56 154.23 85.84 154.33 86.02 154.44 86.21 154.54 86.38 154.94 85.98 156.99 82.75"/><polygon class="cls-12" points="154.44 86.21 154.33 86.02 154.23 85.84 153.94 85.27 153.6 84.51 153.33 83.74 153.12 82.96 152.99 82.3 152.97 82.19 152.97 82.17 152.88 81.38 152.85 80.58 152.88 79.78 152.97 78.98 152.99 78.86 153.27 78.14 153.53 77.73 153.76 77.66 153.37 77.62 153.3 77.61 153.21 77.6 146.43 76.88 146.2 76.95 145.94 77.36 145.66 78.08 145.47 79.07 145.36 80.06 145.32 81.05 145.32 81.83 145.32 81.88 145.32 81.92 145.32 82.01 145.32 82.12 145.32 82.28 145.32 82.45 145.32 82.72 145.32 82.91 145.32 82.92 145.34 83.32 145.35 83.54 145.36 83.68 145.42 84.11 145.44 84.3 145.47 84.5 145.6 85.09 145.63 85.21 145.66 85.35 145.92 86.23 145.93 86.26 145.92 86.27 145.92 86.28 145.94 86.28 145.99 86.42 146.25 87.12 146.47 87.59 146.66 88.01 147.14 88.89 147.23 89.03 147.69 89.77 148.26 90.56 148.32 90.64 149.01 91.5 152.19 93.93 152.7 93.43 153.76 92.41 157.1 89.16 154.54 86.38 154.44 86.21"/><polygon class="cls-6" points="154.2 79.42 154.11 78.53 153.96 77.93 153.93 77.89 153.77 77.68 153.76 77.66 153.53 77.73 153.27 78.14 152.99 78.86 152.97 78.98 152.88 79.78 152.85 80.58 152.88 81.38 152.97 82.17 152.97 82.19 152.99 82.3 153.12 82.96 153.33 83.74 153.6 84.51 153.94 85.27 154.23 85.84 154.23 80.56 154.2 79.42"/><polygon class="cls-13" points="153.37 77.62 153.76 77.66 153.77 77.68 153.93 77.89 154.44 77.62 158.31 75.55 162.08 73.56 163.81 72.65 162.08 75.06 161.91 75.29 159.45 78.94 158.31 80.7 156.99 82.75 154.94 85.98 152.34 90.11 152.06 90.57 150.91 92.38 150.59 92.89 150.48 93.06 149.81 94.12 149.6 94.46 149.59 94.48 149.55 94.65 149.55 94.95 149.55 95.15 149.55 95.17 151.42 96.25 151.43 96.23 152.47 96.84 152.46 96.85 153.14 97.24 157.12 99.54 157.29 99.64 157.47 99.53 157.3 99.43 157.3 98.93 157.52 98.58 157.71 98.69 157.88 98.79 157.88 98.59 157.61 98.43 157.86 98.04 158.06 97.72 158.38 97.22 159.76 95.04 161.3 92.59 162.23 91.12 164.69 87.22 167.15 83.42 169.4 80.08 169.61 79.78 172.04 76.38 172.05 76.36 174.48 73.24 174.69 73 176.9 70.45 177.01 70.34 179.06 68.22 179.29 67.99 180.91 66.5 181.64 65.82 182.62 65.02 183.95 63.91 184.25 63.69 185.08 63.07 185.88 62.87 187.56 62.51 189.26 62.21 190.96 61.95 192.61 61.73 194.18 61.56 195.19 61.48 195.16 61.14 195.15 61 194.1 61.09 192.5 61.26 190.82 61.48 189.09 61.74 187.34 62.05 186.09 62.32 186.21 62.23 188.39 60.75 190.5 59.44 192.53 58.26 194.47 57.22 196.35 56.32 198.17 55.55 199.93 54.92 201.65 54.43 203.33 54.08 204.98 53.87 206.59 53.8 208.13 53.88 208.16 53.88 209.34 54.06 209.6 54.09 210.72 54.4 210.97 54.46 212.06 54.92 212.22 54.98 213.33 55.65 214.3 56.47 215.13 57.4 215.84 58.41 216.44 59.47 216.94 60.54 217.36 61.58 217.71 62.55 218 63.44 218.25 64.23 218.42 64.83 218.63 64.7 218.45 64.05 218.22 63.31 218.2 63.25 217.91 62.37 217.55 61.39 217.13 60.34 216.63 59.27 216.03 58.2 215.31 57.17 214.47 56.23 213.49 55.4 212.36 54.72 204.79 50.35 203.53 49.83 202.15 49.46 200.67 49.24 199.11 49.16 197.5 49.23 195.83 49.45 194.14 49.8 192.41 50.3 190.63 50.93 188.8 51.7 186.92 52.61 184.96 53.65 182.93 54.83 180.81 56.15 178.61 57.64 176.35 59.33 174.02 61.25 171.65 63.43 169.25 65.91 166.81 68.72 164.59 71.58 161.54 73.18 157.77 75.17 153.9 77.23 153.21 77.6 153.3 77.61 153.37 77.62"/><polygon class="cls-12" points="151.55 90.88 150.45 91.95 149.9 92.48 150.48 93.06 150.59 92.89 150.91 92.38 152.06 90.57 152.34 90.11 151.55 90.88"/><polygon class="cls-6" points="147.86 92.42 149.21 93.35 149.21 93.99 149.39 93.89 149.81 94.12 150.48 93.06 149.06 91.59 147.86 92.42"/><path class="cls-7" d="M149,94.84v-.72l.23-.13v-.64l-.12-.09-1.38-1-.05.55.2,1.63,0,0,0,0,0,0,0,0,0,0,0,0,0,0,.07,0,4.1,2.34.24-.27-2.93-1.67-.22-.13Zm-.63-.42v0Z"/><polygon class="cls-6" points="149.21 93.99 148.98 94.12 148.98 94.43 148.98 94.84 149.33 95.04 149.55 95.17 149.55 95.15 149.55 94.95 149.55 94.65 149.59 94.48 149.6 94.46 149.81 94.12 149.39 93.89 149.21 93.99"/><polygon class="cls-7" points="180.27 131.43 180.27 131.21 180.27 130.93 180.27 130.59 180.27 130.45 180.27 126.44 179.02 126.03 175.79 127.89 175.33 128.09 174.88 128.22 174.45 128.27 174.04 128.25 173.95 128.22 173.76 127.98 173.56 127.61 173.42 127.18 173.33 126.71 173.3 126.19 173.33 125.63 173.42 125.05 173.56 124.46 173.76 123.86 174.01 123.26 174.31 122.67 174.65 122.11 175.02 121.58 175.43 121.08 175.86 120.63 176.31 120.24 176.78 119.9 180.27 117.89 180.27 112 180.26 111.83 180.23 111.64 180.21 111.49 180.2 111.39 180.13 111.1 180.1 110.96 180.01 110.72 179.95 110.53 179.84 110.33 179.72 110.1 179.61 109.94 179.41 109.66 179.3 109.54 179 109.22 178.9 109.13 178.66 108.92 178.47 108.75 178.39 108.69 177.83 108.26 177.78 108.23 177.04 107.75 177.03 107.74 176.28 107.31 176.13 107.22 176.09 107.2 175.09 106.66 175 106.61 173.93 106.08 173.87 106.05 173.72 105.97 172.49 105.38 172.27 105.27 171.61 104.97 170.93 104.65 170.63 104.51 169.32 103.92 169.18 103.86 168.8 103.68 167.24 102.97 167.06 102.89 166.77 102.75 165.11 102 164.84 101.88 164.55 101.73 162.79 100.92 162.66 100.86 162.13 100.6 160.51 99.82 159.89 99.51 158.89 99.87 158.47 99.65 158.47 100 158.45 100.01 158.42 100.01 158.38 100.02 158.35 100.02 158.31 100.03 158.27 100.03 158.24 100.03 158.2 100.03 158.16 100.03 158.13 100.02 158.09 100.02 158.06 100.01 158.05 100.01 158.02 100.01 157.99 100 157.95 99.99 157.92 99.98 157.89 99.97 157.86 99.96 157.83 99.94 157.77 99.92 157.7 99.88 157.7 99.66 157.47 99.53 157.29 99.64 157.12 99.54 153.14 97.24 152.46 96.85 152.22 97.12 152.78 97.45 157.42 100.13 157.5 100.17 157.56 100.2 157.62 100.22 157.67 100.24 157.73 100.25 157.79 100.27 157.85 100.28 157.91 100.3 157.97 100.31 158.04 100.31 158.1 100.32 158.17 100.32 158.23 100.32 158.3 100.32 158.36 100.32 158.43 100.31 158.49 100.31 158.56 100.3 158.62 100.29 158.68 100.27 158.74 100.26 158.84 100.23 159.74 99.91 160.45 100.27 161.67 100.86 162.71 101.37 164.07 102.01 165.02 102.47 166.26 103.05 167.35 103.57 168.26 103.99 169.73 104.69 170.06 104.84 171.67 105.62 172.13 105.85 173.1 106.33 174.34 106.98 174.57 107.11 175.43 107.59 176.35 108.15 177.03 108.62 177.11 108.67 177.75 109.17 178.27 109.64 178.67 110.09 178.97 110.54 179.19 110.97 179.34 111.4 179.43 111.84 179.49 112.28 179.5 112.44 179.5 117.44 176.72 119.04 176.17 119.45 175.62 119.92 175.1 120.47 174.61 121.06 174.15 121.71 173.74 122.39 173.38 123.1 173.08 123.82 172.84 124.55 172.67 125.26 172.57 125.96 172.53 126.63 172.57 127.26 172.67 127.84 172.84 128.35 173.08 128.8 173.38 129.18 173.74 129.47 174.15 129.68 174.61 129.8 175.1 129.83 175.62 129.77 176.17 129.62 176.72 129.38 179.5 127.78 179.5 132.78 179.49 132.94 179.43 133.34 179.34 133.7 179.19 134.03 178.97 134.31 178.67 134.53 179.41 134.1 179.72 133.87 179.95 133.59 180.1 133.26 180.2 132.9 180.26 132.49 180.27 132.34 180.27 131.6 180.27 131.56 180.27 131.43"/><polygon class="cls-14" points="142.05 100.17 141.99 100.14 141.97 100.12 141.89 100.2 141.88 100.21 142.13 100.24 142.09 100.21 142.05 100.17"/><polygon class="cls-14" points="140.82 99.65 140.81 99.64 140.72 99.62 140.64 99.6 140.82 99.65 140.82 99.65"/><polygon class="cls-6" points="208.87 55.1 209.37 56.17 209.79 57.21 210.14 58.18 210.43 59.07 210.68 59.86 210.72 59.98 210.85 60.46 218.42 64.83 218.25 64.23 218 63.44 217.71 62.55 217.36 61.58 216.94 60.54 216.44 59.47 215.84 58.41 215.13 57.4 214.3 56.47 213.33 55.65 212.22 54.98 212.06 54.92 210.97 54.46 210.72 54.4 209.6 54.09 209.34 54.06 208.16 53.88 208.27 54.05 208.87 55.1"/><polygon class="cls-7" points="135.2 84.6 135.59 84.7 135.64 84.72 136.09 84.9 136.68 85.22 137.24 85.56 137.39 85.65 138.23 86.2 138.89 86.66 139.21 86.88 140.35 87.69 140.59 87.86 141.67 88.64 142.34 89.13 143.18 89.72 144.14 90.42 144.91 90.95 146 91.72 146.87 92.32 147.78 92.94 148.13 92.61 147.33 92.06 146.89 91.75 146.58 91.53 145.39 90.67 145.15 90.51 144.94 90.35 143.69 89.43 143.51 89.3 143.47 89.27 142.27 88.37 142.21 88.33 141.83 88.05 141.21 87.58 140.92 87.36 140.3 86.91 140.25 86.87 139.81 86.53 139.55 86.34 138.93 85.89 138.85 85.84 138.71 85.75 138.43 85.55 138.06 85.29 138.04 85.27 137.79 85.11 137.64 85.01 137.58 84.98 137.35 84.83 137.23 84.77 136.78 84.5 136.31 84.29 135.92 84.18 135.81 84.18 135.61 84.17 135.38 84.24 134.63 84.67 134.88 84.59 135.2 84.6"/><polygon class="cls-13" points="208.89 62.34 207.7 62.06 206.52 61.81 205.37 61.58 204.28 61.38 203.27 61.21 202.73 61.12 202.69 61.11 202.61 61.6 202.99 61.66 203.98 61.83 205.06 62.03 206.19 62.25 207.35 62.5 208.51 62.77 209.64 63.06 210.2 63.23 210.18 62.68 210.05 62.64 208.89 62.34"/><polygon class="cls-15" points="145.82 86.33 145.92 86.28 145.92 86.27 145.82 86.33"/><path class="cls-10" d="M176.73,129.38l-.56.24-.55.15-.52.06-.49,0-.46-.12-.41-.21-.35-.29-.31-.38-.23-.45-.18-.51-.1-.58,0-.63,0-.67.1-.7.18-.71.23-.73.31-.72.35-.71.41-.68.46-.65.49-.59.52-.55.55-.47.56-.41,2.77-1.6v-5.16l-.06-.44-.09-.44-.15-.43-.22-.43-.3-.45-.4-.45-.52-.47-.64-.5-.08,0-.68-.47-.92-.56-.86-.48-.23-.13-1.24-.65-1-.48-.46-.23-1.61-.78-.33-.15-1.47-.7-.91-.42-1.09-.52-1.24-.58-1-.46-1.36-.64-1-.51-1.22-.59-.71-.36-.9.32-.1,0h-.06l-.06,0h-.71l-.06,0h-.12l-.06,0,0,0-.06,0-.06,0-.08,0-4.64-2.68-.57-.33-1-.6-3-1.75-.07,0,0,0,0,0,0,0,0,0,0,0,0,0,0,0,0,0-.06-1.52-.91-.62-.87-.6L144.91,91l-.77-.53-1-.7-.84-.59-.67-.49-1.08-.77-.24-.18-1.14-.81-.32-.22-.66-.46-.84-.55-.15-.09-.56-.34-.59-.32-.45-.18,0,0-.39-.1h-.32l-.25.08L127.1,89l-1.15.76-.24.2-.15.11h0l-.23.18-.29.4-.16.23-.11.28-.15.42-.06.3,0,.36v20.9l0,.37.06.34.08.31.12.29.16.31.23.36.33.42.44.48.57.55.71.62.86.68,1,.75,1.18.82,1.36.9,1.55,1,1.74,1.08,1.95,1.16,2.17,1.27,7.4,4.27,7.4,4.27.3.18,1.87,1.06,1.95,1.09.32.18,1.74.94,1.55.81,1.37.67,1.19.54,1,.43.87.31.73.21.59.12.45.08.5,0,.39-.05.5,0,.31-.13.47-.18,5.76-3.33,2.92-1.79.3-.22.22-.28.15-.33.09-.36.06-.4v-5.16Zm-28.85-9.94-.32.18.05,0,.31-.19Z"/><path class="cls-6" d="M184.62,112.36l.35-.17,1.38-.67v-5h0v-.08l0-.08,0-.31,0-.07-.09-.29-.05-.08-.14-.26-.21-.24-.07-.07-.11-.08-.28-.21-.35-.18-.17-.07-.15-.06-.26-.1-.24-.08-.33-.08-.48-.14-.41-.07h-.06l-.52-.12-.65-.1-.48-.08h-.05l-.88-.12-.49-.07-.29,0-.9-.12-.4-.06-.4,0-1.17-.16-.24,0-.27,0-1.67-.24h-.07l-.11.06.08-.07-.25,0-1.3-.2-.87-.15-.75-.13-1.6-.32-.25,0-1.32-.29-1.4-.35-.14,0-1.5-.4-1.18-.36-.28-.09-1.43-.47-1.38-.52-1.33-.54-1.29-.59-.2-.1-.25.39.27.16v.2l-.17-.1-.19-.11-.22.35v.5l.17.1.23.13v.21l.07,0,.06,0,0,0h.19v0h.41v-.36l.42.22,1-.36.62.31,1.62.78.53.26.13.06,1.76.81.29.14.27.13,1.66.75.29.14.18.08,1.56.71.38.18.14.06,1.31.59.3.14.68.32.66.3.22.11,1.23.59.15.08.06,0,1.07.53.09,0,1,.54,0,0,.15.09.75.43h0l.74.48.05,0,.56.43.08.06.19.17.24.21.1.09.3.32.11.12.2.28.11.16.12.23.11.2.07.19.08.24,0,.14.06.29v.1l0,.15,0,.19v6.06l-3.5,2-.46.34-.45.39-.43.45-.41.5-.37.53-.34.57-.3.58-.25.6-.2.6-.14.59-.09.58,0,.56,0,.52.09.47.14.43.2.37.19.24.09,0,.41,0,.43-.05.45-.13.46-.2L179,126l1.25.41v5.16l.83-.48.23-.17.47-.43,1.1-1,1.72-1.57,1.06-1,.21-.27.07-.08,0-.08.15-.28,0-.08.1-.3v-.08l.06-.31v-3.08l-1.72.8-1.18.55V113.43Zm-6.24,10.53,0,.3-.08.31-.1.31-.14.3-.15.3-.19.29-.19.27-.22.25-.23.22-.23.19-.24.15-.24.12-.24.08-.22,0h-.22l-.2,0-.18-.08-.49-.28-.16-.12-.13-.15-.11-.19-.07-.22-.05-.24,0-.27,0-.29.05-.29.07-.31.11-.31.13-.31.16-.3.18-.29.2-.26.22-.25.22-.22.24-.19.24-.16.24-.12.23-.08.23,0H177l.19,0,.18.07.5.29.15.11.14.16.1.18.08.22,0,.25v.55Z"/><path class="cls-7" d="M178.33,122.09l-.08-.22-.1-.18-.14-.16-.15-.11-.49-.29-.19-.07-.19,0h-.22l-.23,0-.23.08-.24.12-.24.16-.24.19-.22.22-.22.25-.2.26-.18.29-.16.3-.13.31-.11.31-.07.31-.05.29,0,.29,0,.27.05.24.07.22.11.19.13.15.16.12.49.28.18.08.2,0h.22l.22,0,.24-.08.24-.12.24-.15.23-.19.23-.22.22-.25.19-.27.19-.29.15-.3.14-.3.1-.31.08-.31,0-.3v-.55Zm-1.53,3.31-.48.28v-3.76l.48-.27Z"/><polygon class="cls-16" points="176.32 125.68 176.8 125.4 176.8 121.65 176.32 121.92 176.32 125.68"/><polyline class="cls-6" points="215.46 66.39 215.38 66.35 215.31 66.31 215.31 75.76 215.38 75.8 215.46 75.84"/><polygon class="cls-6" points="198.02 61.29 198.46 61.29 198.45 61.22 198.18 61.22 198.02 61.22 197.2 61.21 196.91 61.21 196.13 61.21 196.09 61.21 196.09 61.23 196.06 61.41 196.92 61.35 198.02 61.29"/><polygon class="cls-6" points="200.56 61.34 201.31 61.41 201.75 61.48 201.73 61.22 201.41 61.22 200.6 61.22 199.96 61.22 199.81 61.22 199.38 61.22 199.37 61.28 199.79 61.29 200.56 61.34"/><path class="cls-6" d="M224,72.09l-1,0-.43,0v.75l-.28-.48-.41-.66-.46-.7-.51-.71-.54-.71-.58-.7-.61-.66.62-.35.11.11.22.23-.11-3.9-1.85-1.07.23.74.19.65-.22.13-7.57-4.37-.13-.48-.61.37.07,2.33,0,.55-.56-.16-1.13-.3-1.16-.27-1.16-.25L205.06,62l-1.08-.2-1-.17-.38-.06.08-.49h0l-.1-1.38h-7.39l-.13.81,0,.46v.14l0,.34-1,.08-1.57.17L191,62l-1.7.26-1.71.3-1.67.36-.8.2-.83.62-.3.22L182.62,65l-1,.8-.73.68L179.29,68l-.23.23L177,70.34l-.11.11L174.69,73l-.21.24-2.43,3.12v0l-2.43,3.4-.21.3L172,78.74l2.65-1.3L177,76.35l2.05-.9,1.85-.73,1.71-.6,1.63-.49,1.63-.41,1.67-.36,1.71-.31,1.7-.25,1.65-.22,1.57-.17,1.45-.13.34,0c-.07-.92-.12-1.65-.17-2.25,0,.6.1,1.33.17,2.25l.09,1.2h7.39l.13-.8v0l.41.07,1.08.2,1.13.22,1.16.25,1.16.27,1.13.29.86.25,0,1.19,8.51,4.92.78-.48h0l.58.69.54.72.51.71.46.7.4.65v0l0-.12.16-.44.08-.21.16-.42.08-.29L223,81l.15-.5.1-.41.08-.35.06-.27.17-1,.08-.65.68,0h.18l0,3.33,0,6.52,0,.33-.07.58h.2l.09-11.82Zm-28.32-4c0,.34.05.73.09,1.18C195.75,68.87,195.72,68.48,195.7,68.14Zm2.75-6.85H198l-1.1.06-.86.06,0-.18v0h2.36v.07c.23,3,.4,5.16.6,7.78C198.85,66.45,198.68,64.27,198.45,61.29Zm2.86.13-.75-.08-.77-.05h-.42v-.06h2.35l0,.26ZM211.5,62l6.4,3.7v.45l-6.29-3.63-.1-.39Zm.13,2.2h0l.08,0Zm3.83,11.66-.08,0-.07,0V66.3l.07,0,.08,0Zm2.5-8h0l.29,9.9Z"/><polygon class="cls-6" points="217.92 66.13 217.91 65.79 217.9 65.68 211.5 61.98 211.53 62.11 211.63 62.5 217.92 66.13"/><polygon class="cls-13" points="224.47 81.14 224.45 77.81 224.27 77.82 223.59 77.85 223.51 78.5 223.34 79.47 223.28 79.74 223.2 80.09 223.1 80.5 222.95 81 222.87 81.27 222.79 81.56 222.63 81.98 222.55 82.19 222.39 82.63 222.34 82.75 222.33 82.77 221.91 83.67 221.34 84.69 220.63 85.72 219.74 86.79 218.64 87.95 215.6 90.71 213.59 92.38 211.21 94.3 208.52 96.41 205.59 98.68 202.49 101.06 199.29 103.51 196.06 105.98 193.04 108.28 186.35 111.52 184.97 112.19 184.63 112.36 183.45 113.44 183.45 123.78 184.63 123.23 186.35 122.43 193.04 119.29 193.52 119.07 196.71 116.63 199.95 114.17 203.15 111.72 206.25 109.34 209.19 107.07 211.88 104.96 214.26 103.05 216.29 101.36 217.97 99.89 219.36 98.58 220.49 97.39 221.4 96.29 222.13 95.23 222.72 94.19 223.22 93.11 223.62 92.02 223.94 90.94 224.18 89.9 224.36 88.9 224.4 88.57 224.47 87.99 224.5 87.66 224.47 81.14"/><path class="cls-17" d="M159.27,125v-.76"/><path class="cls-9" d="M169.25,139.88c2.85-5.18,1.94-22.59.13-22.94-19-3.59-37.95-13.33-44.62-26.15-3.59,3.59-3.07,18.46-2.05,25.64a6,6,0,0,0,1,2.56c7.18,10.26,30.41,20.83,45.17,21.09Z"/></g><g id="Ar_Headset"><path class="cls-11" d="M128.12,243.75l-4.76,1.51.38,2s1.66,3.07,2.62,4.62.11,4.84.11,4.84-.55-7.28-3.77-10.57-2.07,1.78-2.07,1.78,4.06,3.44,4,6.61-3,9.61-8.37,14.05-12.93,9.08-19.44,11.32-6.72,2.21-6.72,2.21.22-.64-4.18-.58-14.27-.27-14.27-.27-11.9-7.06-16.19-11.13-6.87-6.87,4.81-14.27,16.56-9.46,31.05-12.08,23.43.92,23.43.92l4.69-6.23s-4.1-3.23-21.62-3.23-35,8.73-42.5,12.49S39.6,261.88,39.6,261.88s-1.68,4-1.3,10.86,8.15,13.69,16.75,16.58S73,292,79.61,291.26s7.85-1.55,7.85-1.55,15.27-2.88,27.35-10.76S130,263.65,131.67,257,128.12,243.75,128.12,243.75Z"/><polygon class="cls-18" points="71.62 267.19 67.27 267.24 63.08 267.04 59.54 266.62 60.67 271.13 60.73 271.33 70.85 277.17 71.24 276.94 72.23 273.72 72.56 270.05 72.32 267.14 71.91 267.17 71.62 267.19"/><polygon class="cls-18" points="51.86 264.89 48.69 263.7 45.86 262.27 43.39 260.64 41.84 259.27 42.14 260.6 52.26 266.44 52.65 266.21 52.71 266.08 53.02 265.21 52.73 265.13 51.86 264.89"/><polygon class="cls-19" points="47.07 272.52 46.89 272.5 46.84 272.5 46.74 272.53 46.68 272.55 46.63 272.65 46.64 272.69 46.66 272.75 46.7 272.83 46.71 272.86 47.2 273.78 47.63 273.4 47.2 272.58 47.18 272.55 47.17 272.54 47.14 272.52 47.07 272.52"/><polygon class="cls-9" points="37.8 242.88 38.2 245.25 39.03 247.51 40.29 249.64 41.96 251.62 44.03 253.42 46.47 255.04 49.27 256.45 52.4 257.64 55.83 258.61 59.52 259.34 63.43 259.82 67.54 260.05 71.8 260.02 76.17 259.75 80.6 259.23 85.07 258.46 87.46 257.91 87.27 257.64 87.06 257.37 86.49 256.62 85.67 255.64 85.03 255.21 84.27 254.7 80.67 255.32 76.34 255.83 72.08 256.1 67.92 256.12 63.91 255.9 60.09 255.43 56.49 254.72 53.15 253.78 50.1 252.61 47.37 251.23 44.98 249.66 42.96 247.89 41.33 245.97 40.1 243.89 39.29 241.68 38.9 239.37 38.94 236.97 39.4 234.51 38.31 237.89 37.84 240.42 37.8 242.88"/><polygon class="cls-9" points="111.22 255.59 110.08 256.2 108.88 256.85 110.08 257.46 115.37 253.99 115.37 252.97 114.82 253.36 111.22 255.59"/><polygon class="cls-7" points="130.23 224.56 129.56 221.28 128.78 219.02 127.69 215.98 128.46 218.18 128.8 220.5 128.71 222.9 128.2 225.37 127.26 227.88 125.9 230.41 124.15 232.93 122.01 235.42 119.5 237.85 116.66 240.21 113.5 242.46 110.06 244.59 106.37 246.57 102.47 248.4 98.39 250.04 94.18 251.49 89.86 252.72 85.5 253.74 81.12 254.52 76.77 255.06 72.5 255.36 68.33 255.41 64.32 255.21 60.5 254.77 56.91 254.08 53.58 253.16 50.55 252.02 47.84 250.65 45.48 249.09 43.49 247.34 41.9 245.42 40.71 243.34 39.95 241.14 39.6 238.82 39.69 236.42 40.21 233.95 40.51 233.16 41.01 231.81 41.15 231.44 41.87 230.1 41.37 229.93 40.29 232.01 39.4 234.51 38.94 236.97 38.9 239.37 39.29 241.68 40.1 243.89 41.33 245.97 42.96 247.89 44.98 249.66 47.37 251.23 50.1 252.61 53.15 253.78 56.49 254.72 60.09 255.43 63.91 255.9 67.92 256.12 72.08 256.1 76.34 255.83 80.67 255.32 84.27 254.7 85.03 255.21 85.67 255.64 85.51 255.46 85.51 255.46 85.67 255.64 86.49 256.62 87.06 257.37 87.27 257.64 87.46 257.91 87.98 258.65 88.64 259.69 89.22 260.69 89.25 260.75 89.48 261.18 89.61 261.42 89.79 261.8 90.11 262.5 90.25 262.83 90.67 263.9 90.68 263.93 94.62 262.8 99.03 261.28 103.29 259.57 107.37 257.66 108.88 256.85 110.08 256.2 111.22 255.59 114.82 253.36 115.37 252.97 118.12 251.01 121.09 248.55 123.71 246 125.94 243.4 127.78 240.77 129.2 238.13 130.18 235.5 130.72 232.93 130.81 230.41 130.59 226.97 130.23 224.56"/><polygon class="cls-6" points="46.15 234.85 46.53 235.37 46.89 235.8 47.49 236.53 47.71 236.77 48.53 237.67 48.61 237.75 49.59 238.72 49.64 238.78 50.64 239.69 50.84 239.87 51.77 240.65 52.11 240.93 52.98 241.6 53.45 241.96 54.26 242.53 54.86 242.96 55.6 243.44 56.34 243.92 57.02 244.33 57.89 244.85 58.49 245.19 57.02 244.3 55.6 243.37 54.26 242.42 52.98 241.43 51.77 240.41 50.64 239.37 49.59 238.3 48.61 237.21 47.71 236.09 46.89 234.96 46.15 233.8 45.87 233.03 45.87 234.47 46.15 234.85"/><polygon class="cls-6" points="53.82 232.57 56.43 230.43 59.33 228.37 62.48 226.43 65.86 224.6 69.42 222.93 73.13 221.42 76.95 220.1 80.83 218.96 84.74 218.03 88.63 217.31 92.45 216.8 96.18 216.52 99.77 216.45 103.19 216.59 106.4 216.94 109.38 217.49 112.11 218.23 114.58 219.16 116.77 220.25 118.67 221.52 120.27 222.94 121.56 224.52 122.49 226.22 122.51 226.18 122.75 225.58 123.11 223.98 123.24 223.43 123.36 221.35 123.11 219.38 122.51 217.53 121.56 215.81 120.27 214.23 118.67 212.8 116.77 211.54 114.58 210.44 112.11 209.52 109.38 208.78 106.4 208.23 103.19 207.88 99.77 207.73 96.18 207.8 92.45 208.09 88.63 208.59 84.74 209.31 80.83 210.25 76.95 211.38 73.13 212.71 69.42 214.22 65.86 215.89 62.48 217.71 59.33 219.66 56.43 221.72 53.82 223.86 51.52 226.06 49.55 228.31 47.94 230.56 47.33 231.65 47.1 232.3 47.1 232.94 47.33 233.57 47.34 233.59 47.94 234.52 48.04 234.68 48.84 235.79 49.55 236.67 49.7 236.85 51.52 234.78 53.82 232.57"/><polygon class="cls-6" points="113.17 209.05 115.34 209.87 115.53 209.96 115.4 208.91 114.78 206.15 113.17 207.77 113.17 209.05"/><polygon class="cls-7" points="90.25 262.83 90.11 262.5 89.79 261.8 89.61 261.42 89.48 261.18 89.25 260.75 89.22 260.69 88.64 259.69 87.98 258.65 87.46 257.91 85.07 258.46 80.6 259.23 76.17 259.75 71.8 260.02 67.54 260.05 63.43 259.82 59.52 259.34 55.83 258.61 52.4 257.64 49.27 256.45 46.47 255.04 44.03 253.42 41.96 251.62 40.29 249.64 39.03 247.51 38.2 245.25 37.8 242.88 37.84 240.42 38.31 237.89 37.65 241.31 37.17 243.87 36.95 247.28 36.91 249.79 37.31 252.21 38.16 254.51 39.45 256.69 41.15 258.7 43.26 260.54 45.75 262.19 48.61 263.63 51.8 264.85 55.29 265.83 59.05 266.58 63.04 267.06 67.23 267.3 71.58 267.28 76.03 267 80.55 266.46 85.1 265.68 89.63 264.65 90.81 264.32 90.68 263.93 90.67 263.9 90.25 262.83"/><g class="cls-20"><polygon class="cls-10" points="85.1 265.68 80.55 266.46 76.03 267 71.58 267.28 67.23 267.3 63.04 267.06 59.05 266.58 55.29 265.83 51.8 264.85 48.61 263.63 45.75 262.19 43.26 260.54 41.15 258.7 39.45 256.69 38.16 254.51 37.31 252.21 36.91 249.79 37.13 253.13 37.54 255.54 38.2 258.73 39.03 260.99 40.1 263.94 41.59 266.67 42.78 268.68 44.59 271.03 46.12 272.84 47.2 273.78 46.71 272.86 46.7 272.83 46.66 272.75 46.64 272.69 46.63 272.65 46.68 272.55 46.74 272.53 46.84 272.5 46.89 272.5 47.07 272.52 47.14 272.52 47.17 272.54 47.6 272.69 48.25 273.05 49.11 273.57 49.84 274.08 50.46 274.58 50.74 274.84 50.99 275.04 51.43 275.41 51.54 275.51 51.75 275.69 51.95 275.86 52 275.91 53.88 277.64 55.51 278.27 58.57 279.11 61.83 279.64 65.28 279.87 68.9 279.79 72.69 279.38 76.65 278.66 79.91 277.81 80.75 277.57 84.98 276.04 87.15 275.1 89.35 273.73 89.36 273.64 89.35 273.73 89.49 273.6 90.45 272.6 91.3 271.34 91.5 270.82 91.7 270.31 91.73 270.23 91.75 270.14 91.73 269.11 91.65 268.08 91.61 267.73 91.56 267.37 91.51 267.06 91.28 265.99 91.01 264.95 90.91 264.63 90.81 264.32 89.63 264.65 85.1 265.68"/></g><path class="cls-13" d="M128.46,218.18l-.77-2.2-1.18-2.08L124.93,212l-2.81.92v1.88l-.76-.94-1.69-1.51-2-1.33L115.53,210l-.19-.09-2.17-.82v-1.28l1.61-1.62-3.28-.91-3.6-.69-3.82-.44-4-.2-4.16.05-4.28.3-4.34.54-4.38.78-4.37,1-4.31,1.23L70,209.28l-4.08,1.64L62,212.75l-3.69,2-3.44,2.13-3.16,2.25-2.84,2.36L46.4,223.9l-2.14,2.49-1.76,2.52-.63,1.19-.72,1.34-.14.37-.51,1.35-.29.79-.52,2.47-.09,2.4.35,2.32.76,2.2,1.19,2.08,1.6,1.92,2,1.75,2.36,1.56L50.55,252l3,1.14,3.33.92,3.59.69,3.82.44,4,.2,4.17,0,4.27-.3,4.35-.54,4.38-.78,4.36-1,4.32-1.23L98.39,250l4.08-1.64,3.9-1.83,3.69-2,3.44-2.13,3.16-2.26,2.84-2.35,2.51-2.43,2.14-2.49,1.75-2.52,1.36-2.53.94-2.51.51-2.47.09-2.4Zm-51.77,33-1.92-.46-1.89-.51L71,249.7l-1.81-.6-1.76-.63-1.72-.68-1.67-.72-1.62-.76-1.57-.8-1.5-.84-1.44-.86-1.39-.91L55.24,242,54,241l-1.18-1-1.1-1-1-1-1-1.07,0,0-.15-.18-.71-.88-.8-1.11-.1-.16-.6-.93v0l-.23-.63v-.64l.23-.65.61-1.09,1.61-2.25,2-2.25,2.3-2.2,2.61-2.14,2.9-2.06,3.15-1.95,3.38-1.82,3.56-1.67,3.71-1.51L77,211.38l3.88-1.13,3.91-.93,3.89-.72,3.82-.51,3.73-.29,3.59-.07,3.42.15,3.21.35,3,.55,2.73.74,2.47.92,2.19,1.1,1.9,1.26,1.6,1.43,1.28,1.58,1,1.72.6,1.85.25,2-.12,2.08-.13.55-.36,1.6-.24.6,0,0-.62,1.57L120.62,230,119,232.29l-2,2.24-2.31,2.21-2.61,2.14-2.89,2.06-3.16,1.94-3.37,1.83-3.57,1.67-3.71,1.51-3.81,1.32-3.89,1.14-3.91.93-1.88.35-1.13.14h-1.1l-1.13-.14Zm.51.88,1,.21h0Z"/><polygon class="cls-21" points="90.25 262.83 90.11 262.5 89.79 261.8 89.61 261.42 89.48 261.18 89.25 260.75 89.22 260.69 88.64 259.69 87.98 258.65 87.46 257.91 85.07 258.46 80.6 259.23 76.17 259.75 71.8 260.02 67.54 260.05 63.43 259.82 59.52 259.34 55.83 258.61 52.4 257.64 49.27 256.45 46.47 255.04 44.03 253.42 41.96 251.62 40.29 249.64 39.03 247.51 38.2 245.25 37.8 242.88 37.84 240.42 38.31 237.89 37.65 241.31 37.17 243.87 36.95 247.28 36.91 249.79 37.31 252.21 38.16 254.51 39.45 256.69 41.15 258.7 43.26 260.54 45.75 262.19 48.61 263.63 51.8 264.85 55.29 265.83 59.05 266.58 63.04 267.06 67.23 267.3 71.58 267.28 76.03 267 80.55 266.46 85.1 265.68 89.63 264.65 90.81 264.32 90.68 263.93 90.67 263.9 90.25 262.83"/></g><g class="cls-22"><path d="M227,270.22l26.3,15.19a3.5,3.5,0,0,0,3.18,0l51.32-29.82a1,1,0,0,0,0-1.84l-26.3-15.18a3.5,3.5,0,0,0-3.18,0L227,268.38A1,1,0,0,0,227,270.22Z"/></g><path class="cls-4" d="M254.91,283.22a1.7,1.7,0,1,1-1.73,2A1.91,1.91,0,0,1,254.91,283.22Z"/><path class="cls-4" d="M227.75,206.9a1.7,1.7,0,1,1-1.73,2A1.91,1.91,0,0,1,227.75,206.9Z"/><path class="cls-6" d="M229.43,207.13l26.3,15.19a3.5,3.5,0,0,1,1.59,2.74v59.36c0,1-.88,1.42-1.76.91l-26.3-15.19a3.5,3.5,0,0,1-1.59-2.75l.16-59.35C227.83,207,228.55,206.62,229.43,207.13Z"/><path class="cls-7" d="M227.59,208.09l26.31,15.19a3.48,3.48,0,0,1,1.58,2.75l-.16,59.35c0,1-.71,1.42-1.59.91l-26.31-15.18a3.5,3.5,0,0,1-1.58-2.75L226,209C226,208,226.72,207.59,227.59,208.09Z"/><polygon class="cls-9" points="253.28 232.34 253.16 279.33 228.07 264.85 228.2 217.86 253.28 232.34"/><polygon class="cls-10" points="253.3 229.48 253.28 233.07 228.2 218.59 228.22 215 253.3 229.48"/><path class="cls-4" d="M239.79,217.83l1.75,1a1.67,1.67,0,0,1,.76,1.31c0,.49-.35.68-.77.44l-1.75-1a1.67,1.67,0,0,1-.76-1.32C239,217.78,239.37,217.59,239.79,217.83Z"/></g></g></g></svg>