<svg xmlns="http://www.w3.org/2000/svg" xmlns:xlink="http://www.w3.org/1999/xlink" viewBox="0 0 132.35 152.82"><defs><style>.cls-1,.cls-2,.cls-3,.cls-4{fill:none;}.cls-2,.cls-3,.cls-4{stroke:#eb0f0f;stroke-miterlimit:10;stroke-width:2px;}.cls-3{stroke-dasharray:5.62 3.74;}.cls-4{stroke-dasharray:4 4;}.cls-5{clip-path:url(#clip-path);}.cls-6{fill:#b946f9;}.cls-7{fill:#7737ff;}.cls-8{fill:#8f4ee8;}</style><clipPath id="clip-path"><rect class="cls-1" x="5.14" y="16.38" width="122.38" height="120.5"/></clipPath></defs><title>Core</title><g id="Layer_2" data-name="Layer 2"><g id="Layer_1-2" data-name="Layer 1"><g id="Core"><polyline class="cls-2" points="3.6 37.28 1 38.78 1 41.78"/><line class="cls-3" x1="1" y1="45.53" x2="1" y2="109.17"/><polyline class="cls-2" points="1 111.04 1 114.04 3.6 115.54"/><line class="cls-3" x1="6.84" y1="117.41" x2="61.96" y2="149.23"/><polyline class="cls-2" points="63.58 150.17 66.17 151.67 68.77 150.17"/><line class="cls-3" x1="72.01" y1="148.3" x2="127.13" y2="116.48"/><polyline class="cls-2" points="128.75 115.54 131.35 114.04 131.35 111.04"/><line class="cls-3" x1="131.35" y1="107.3" x2="131.35" y2="43.65"/><polyline class="cls-2" points="131.35 41.78 131.35 38.78 128.75 37.28"/><line class="cls-3" x1="125.51" y1="35.41" x2="70.39" y2="3.59"/><polyline class="cls-2" points="68.77 2.65 66.17 1.16 63.58 2.65"/><line class="cls-3" x1="60.33" y1="4.53" x2="5.22" y2="36.35"/><line class="cls-4" x1="66.17" y1="3.89" x2="66.17" y2="94.94"/><line class="cls-4" x1="61.51" y1="73.54" x2="128.82" y2="112.4"/><polyline class="cls-4" points="70.65 73.65 66.15 76.25 3.53 112.4"/><g class="cls-5"><polygon class="cls-6" points="66.39 32.92 28.63 54.38 66.39 75.84 104.14 54.38 66.39 32.92"/><polygon class="cls-7" points="104.14 54.38 66.39 75.84 66.39 120.49 104.14 99.03 104.14 54.38"/><polygon class="cls-8" points="28.63 54.38 66.39 75.84 66.39 120.49 28.63 99.03 28.63 54.38"/></g><line class="cls-4" x1="66.17" y1="77.45" x2="66.17" y2="148.57"/><line class="cls-4" x1="128.82" y1="40.06" x2="66.22" y2="76.2"/><line class="cls-4" x1="3.53" y1="40.06" x2="66.2" y2="76.25"/></g></g></g></svg>