<svg xmlns="http://www.w3.org/2000/svg" viewBox="0 0 156.83 165.23"><defs><style>.cls-1{fill:#09425e;}.cls-2{isolation:isolate;}.cls-3{fill:#100928;}.cls-4{fill:#3f29aa;}.cls-5{fill:#5f3eff;}.cls-6{fill:#d4e3e6;}.cls-7{fill:#fff;}.cls-8{fill:#b946f9;}</style></defs><title>desktop</title><g id="Layer_2" data-name="Layer 2"><g id="Layer_1-2" data-name="Layer 1"><path class="cls-1" d="M119.28,103.7a1.11,1.11,0,0,0,0-2.1L94.58,88.18l-1.36-.74a4,4,0,0,0-3.63.1L20.25,130.2a1.11,1.11,0,0,0,0,2.1l26,14.16a4,4,0,0,0,3.63-.1l32-19.68Z"/><path class="cls-1" d="M103.43,119.61a4,4,0,0,0-3.63.1l-19.53,12-4.08,2.51a1.11,1.11,0,0,0,0,2.1l2.13,1.17,14.06,7.65a4,4,0,0,0,3.63-.1l23.62-14.53a1.11,1.11,0,0,0-.05-2.1Z"/><g class="cls-2"><path class="cls-3" d="M87.84,1.33,3.34,53.83a5.78,5.78,0,0,0-2.49,4.6l2.76,71.68L93.25,74.44,90.5,2.75C90.45,1.09,89.26.46,87.84,1.33Z"/><path class="cls-4" d="M87,.39,2.49,52.89A5.77,5.77,0,0,0,0,57.49l1.87,69.79a3.33,3.33,0,0,0,1.74,2.83L.85,58.43a5.78,5.78,0,0,1,2.49-4.6l84.5-52.5a1.82,1.82,0,0,1,1.85-.23L88.84.16A1.84,1.84,0,0,0,87,.39Z"/></g><path class="cls-3" d="M156.78,108a.56.56,0,0,1,0,.13s0,.08,0,.13l0,.11a.61.61,0,0,1,0,.13s0,.07,0,.11,0,.08,0,.13l-.06.09-.09.16-.14.18h0l-.16.17-.11.1-.13.11-.13.09-.22.15L69,163.09c-.13.08-.27.15-.41.22l-.12.05-.38.16-.09,0-.18.06-.19,0-.2.05-.19,0c-.15,0-.31.06-.48.09h-.14l-.29,0H65.09l-.19,0-.22,0-.18,0-.26-.05-.15,0-.47-.14-.23-.09-.11,0-.33-.16L4.85,130.17a2.11,2.11,0,0,1-1.29-1.7l.09,3a2.12,2.12,0,0,0,1.29,1.7L63,164.58l.33.16.12,0,.21.09h0l.47.14h.05l.1,0,.26.05.09,0h.09l.22,0,.11,0h.08l.22,0h1l.29,0h.15a3.55,3.55,0,0,0,.47-.08h0l.17,0,.19,0,.19-.06.18-.05h0l.06,0a2.5,2.5,0,0,0,.38-.15l.12-.05c.14-.07.28-.14.41-.22l86.56-53.25.14-.09.08-.06.13-.09.13-.11.11-.1,0,0,.11-.12h0l.13-.16,0,0,.09-.15.05-.07s0,0,0,0l.05-.14,0-.09h0a.79.79,0,0,0,0-.13l0-.1h0a.66.66,0,0,0,0-.14s0-.06,0-.09v0Z"/><g class="cls-2"><path class="cls-5" d="M103.65,116.2a4,4,0,0,0-3.64.11l-19.53,12-4.08,2.51a1.12,1.12,0,0,0,0,2.11l2.13,1.16,14.06,7.65a4,4,0,0,0,3.63-.1l23.62-14.52a1.12,1.12,0,0,0,0-2.11Z"/><path class="cls-4" d="M155.5,106.45,97.91,73.5a6.66,6.66,0,0,0-6,.17l-7.33,4.51L86,79l1.51.83L15.74,124l-3-1.64-7.93,4.43c-1.65,1-1.61,2.58.08,3.5L63,163.38a6.71,6.71,0,0,0,6.06-.17L155.58,110C157.23,109,157.19,107.38,155.5,106.45Zm-35.61,20.68L96.27,141.65a4,4,0,0,1-3.63.1L78.58,134.1l-2.13-1.16a1.12,1.12,0,0,1,0-2.11l4.08-2.51,19.53-12a4,4,0,0,1,3.64-.11L119.84,125A1.12,1.12,0,0,1,119.89,127.13Z"/></g><polygon class="cls-3" points="12.71 122.36 15.74 124 87.55 79.83 84.53 78.18 12.71 122.36"/><polygon class="cls-6" points="5.87 58.89 7.59 120.55 88.03 71.07 86.36 8.82 5.87 58.89"/><g class="cls-2"><polygon class="cls-7" points="5.86 58.42 7.61 121.08 88.2 71.59 86.27 8.94 5.86 58.42"/></g><path class="cls-8" d="M95.92,84.34l-1.36-.74a4,4,0,0,0-3.63.1L21.58,126.35a1.12,1.12,0,0,0,.05,2.11l26,14.16a4,4,0,0,0,3.63-.1l32-19.68,37.34-23a1.12,1.12,0,0,0,0-2.11Z"/></g></g></svg>