<svg id="Layer_1" data-name="Layer 1" xmlns="http://www.w3.org/2000/svg" xmlns:xlink="http://www.w3.org/1999/xlink" viewBox="0 0 100 100"><defs><style>.cls-1{fill:url(#linear-gradient);}.cls-2{fill:#fff;fill-rule:evenodd;}</style><linearGradient id="linear-gradient" x1="50" x2="50" y2="100" gradientUnits="userSpaceOnUse"><stop offset="0" stop-color="#7737ff"/><stop offset="1" stop-color="#b946f9"/></linearGradient></defs><title>Eduactaion</title><path class="cls-1" d="M50,2.31,91.3,26.15v47.7L50,97.69,8.7,73.85V26.15L50,2.31M50,0,6.7,25V75L50,100,93.3,75V25L50,0Z"/><path class="cls-2" d="M67.8,43.1l6.51-1.61.19-.05,1.07-.26L50,32,24.43,41.18,32.2,43.1c.28-1.7,2.43-3.08,5.77-4A49.22,49.22,0,0,1,50,37.8a49.31,49.31,0,0,1,12,1.33c3.33.89,5.48,2.27,5.76,4ZM50,60.52a46.41,46.41,0,0,0,11.39-1.25c2.41-.64,3.9-1.33,3.9-1.89s-1.49-1.25-3.9-1.89A46.41,46.41,0,0,0,50,54.24a46.47,46.47,0,0,0-11.39,1.25c-2.4.64-3.89,1.32-3.89,1.89s1.49,1.25,3.89,1.89A46.47,46.47,0,0,0,50,60.52Zm12,1.21a48.63,48.63,0,0,1-12,1.34,48.69,48.69,0,0,1-12-1.34c-3.56-.95-5.76-2.46-5.8-4.3v0h0V45.71L19.8,42.66a1.28,1.28,0,0,1-.2-2.46l30-10.71a1.27,1.27,0,0,1,.86,0l30,10.71a1.28,1.28,0,0,1-.13,2.44L76,43.7V54.05a3.63,3.63,0,0,1,1.28.83h0a3.63,3.63,0,0,1,0,5.12,3.41,3.41,0,0,1-1,.72,3.9,3.9,0,0,1,1,.72h0A3.6,3.6,0,0,1,78.33,64v7.68a2.87,2.87,0,0,1-.84,2h0a2.87,2.87,0,0,1-2,.84H74a2.89,2.89,0,0,1-2-.84h0a2.88,2.88,0,0,1-.85-2V64a3.64,3.64,0,0,1,1.06-2.56h0a3.9,3.9,0,0,1,1-.72,3.59,3.59,0,0,1-1-.72,3.62,3.62,0,0,1,0-5.12h0a3.74,3.74,0,0,1,1.28-.82V44.33l-5.6,1.38V57.44c0,1.84-2.26,3.35-5.81,4.29ZM34.72,54.24V43.48c0-.56,1.49-1.24,3.89-1.89A46.52,46.52,0,0,1,50,40.35a46.46,46.46,0,0,1,11.39,1.24c2.41.65,3.9,1.33,3.9,1.89V54.24A15.82,15.82,0,0,0,62,53a49.16,49.16,0,0,0-12-1.33A49.22,49.22,0,0,0,38,53a15.5,15.5,0,0,0-3.25,1.22Zm40.39,2.2a1.29,1.29,0,0,1-.4.06,1.23,1.23,0,0,1-.39-.06.88.88,0,0,0-.36.24h0a1.07,1.07,0,0,0,1.52,1.52,1.11,1.11,0,0,0,.31-.76,1,1,0,0,0-.31-.76h0a.88.88,0,0,0-.36-.24ZM73.64,64v7.68a.37.37,0,0,0,.1.25h0A.37.37,0,0,0,74,72h1.45a.32.32,0,0,0,.24-.09.33.33,0,0,0,.1-.25V64a1,1,0,0,0-.31-.76h0a1.1,1.1,0,0,0-1.51,0h0A1.07,1.07,0,0,0,73.64,64Z"/></svg>