<svg id="Layer_1" data-name="Layer 1" xmlns="http://www.w3.org/2000/svg" xmlns:xlink="http://www.w3.org/1999/xlink" viewBox="0 0 100 100"><defs><style>.cls-1{fill:url(#linear-gradient);}.cls-2{fill:#fff;fill-rule:evenodd;}</style><linearGradient id="linear-gradient" x1="50" x2="50" y2="100" gradientUnits="userSpaceOnUse"><stop offset="0" stop-color="#7737ff"/><stop offset="1" stop-color="#b946f9"/></linearGradient></defs><title>Enterprise</title><path class="cls-1" d="M50,2.31,91.3,26.15v47.7L50,97.69,8.7,73.85V26.15L50,2.31M50,0,6.7,25V75L50,100,93.3,75V25L50,0Z"/><path class="cls-2" d="M42.47,67.45H57.53V33.92a.14.14,0,0,0,0-.1.15.15,0,0,0-.1,0H42.61a.15.15,0,0,0-.1,0l0,0a.12.12,0,0,0,0,.08V67.45ZM24.36,70a1.28,1.28,0,1,1,0-2.55H29.5V48.18a2.66,2.66,0,0,1,.79-1.9h0a2.72,2.72,0,0,1,1.9-.79h.86V41.71a1.28,1.28,0,0,1,1.28-1.28h5.58V33.92a2.64,2.64,0,0,1,.71-1.8l.08-.1a2.7,2.7,0,0,1,1.91-.79h.81V27.39a1.28,1.28,0,0,1,1.28-1.28h1.52V22.3A1.28,1.28,0,0,1,47.5,21h1.22V15.28a1.28,1.28,0,1,1,2.56,0V21H52.5a1.29,1.29,0,0,1,1.28,1.28v3.81H55.3a1.28,1.28,0,0,1,1.28,1.28v3.84h.81a2.7,2.7,0,0,1,2.69,2.69V52.21h7.84a2.69,2.69,0,0,1,1.9.79h0a2.72,2.72,0,0,1,.79,1.9V67.45h5a1.28,1.28,0,1,1,0,2.55H24.36ZM46.42,40.53a1.28,1.28,0,1,1,0-2.55h7.16a1.28,1.28,0,1,1,0,2.55Zm0,21.5a1.28,1.28,0,1,1,0-2.55h7.16a1.28,1.28,0,1,1,0,2.55Zm0-7.17a1.28,1.28,0,1,1,0-2.55h7.16a1.28,1.28,0,1,1,0,2.55Zm0-7.16a1.28,1.28,0,1,1,0-2.55h7.16a1.28,1.28,0,1,1,0,2.55ZM60.08,59.48h4.41a1.28,1.28,0,1,1,0,2.55H60.08v5.42h8V54.89a.12.12,0,0,0,0-.09h0a.13.13,0,0,0-.09,0H60.23a.12.12,0,0,0-.1,0h0a.3.3,0,0,0,0,.1v4.59ZM35,62a1.28,1.28,0,1,1,0-2.55h5V54.86H35a1.28,1.28,0,1,1,0-2.55h5V48.17a.17.17,0,0,0,0-.1.21.21,0,0,0-.11,0H32.19a.14.14,0,0,0-.1,0h0a.21.21,0,0,0,0,.11V67.45h7.86V62Zm5-19.05H35.6v2.5h4.31V43ZM51.22,26.11V23.58H48.78v2.53ZM54,28.66H46v2.57H54Z"/></svg>