<svg id="Layer_1" data-name="Layer 1" xmlns="http://www.w3.org/2000/svg" xmlns:xlink="http://www.w3.org/1999/xlink" viewBox="0 0 100 100"><defs><style>.cls-1{fill:url(#linear-gradient);}.cls-2{fill:#fff;fill-rule:evenodd;}</style><linearGradient id="linear-gradient" x1="50" x2="50" y2="100" gradientUnits="userSpaceOnUse"><stop offset="0" stop-color="#7737ff"/><stop offset="1" stop-color="#b946f9"/></linearGradient></defs><title>Entertainment</title><path class="cls-1" d="M50,2.31,91.3,26.15v47.7L50,97.69,8.7,73.85V26.15L50,2.31M50,0,6.7,25V75L50,100,93.3,75V25L50,0Z"/><path class="cls-2" d="M49.68,24.52A19.06,19.06,0,0,1,64.75,55.25c-.34.43-.69.85-1.07,1.25a1.07,1.07,0,0,1-.14.16,19.11,19.11,0,0,1-8.16,5.11v9.52a4.2,4.2,0,0,1-4.2,4.19h-3A4.2,4.2,0,0,1,44,71.29V61.77a19,19,0,0,1-11-8.94,6.93,6.93,0,0,1-2.66.52,7.11,7.11,0,1,1,0-14.21,6.51,6.51,0,0,1,.77,0A19.08,19.08,0,0,1,49.68,24.52ZM34.88,46.88v-.06h0v-.11h0v-.06h0v-.1h0V46h0v0h0v-.12h0v-.09h0V45.6h0v0h0a4.55,4.55,0,1,0-1.28,3.92,4.61,4.61,0,0,0,1.29-2.59Zm.51,4.39-.21.2a16.11,16.11,0,0,0,2.07,3H62.12c.21-.25.42-.49.62-.75A16.51,16.51,0,1,0,33.59,39.9a7.17,7.17,0,0,1,3.88,6.27v.07h0v.17a7.06,7.06,0,0,1-2.08,4.86ZM59.32,57H40.05a16.57,16.57,0,0,0,5.49,2.57,1.29,1.29,0,0,1,1,1.25V71.29a1.64,1.64,0,0,0,1.64,1.64h3a1.66,1.66,0,0,0,1.65-1.64V60.81a1.28,1.28,0,0,1,1-1.24A16.4,16.4,0,0,0,59.32,57Z"/></svg>