<?xml version="1.0" encoding="UTF-8"?>
<svg width="44px" height="44px" viewBox="0 0 44 44" version="1.1" xmlns="http://www.w3.org/2000/svg" xmlns:xlink="http://www.w3.org/1999/xlink">
    <!-- Generator: Sketch 56.1 (81669) - https://sketch.com -->
    <title>facebook-logo-purple</title>
    <desc>Created with Sketch.</desc>
    <g id="facebook-logo-purple" stroke="none" stroke-width="1" fill="none" fill-rule="evenodd">
        <g fill-rule="nonzero">
            <path d="M22,0 C9.84971429,0 0,9.62065116 0,21.4883721 C0,32.2131163 8.04466667,41.104186 18.5627619,42.715814 L18.5627619,27.6995349 L12.9768571,27.6995349 L12.9768571,21.4883721 L18.5627619,21.4883721 L18.5627619,16.7537674 C18.5627619,11.3683721 21.8470476,8.39376744 26.8724762,8.39376744 C29.2788571,8.39376744 31.7973333,8.81330233 31.7973333,8.81330233 L31.7973333,14.1014884 L29.0232381,14.1014884 C26.29,14.1014884 25.4372381,15.7581395 25.4372381,17.4577674 L25.4372381,21.4883721 L31.5385714,21.4883721 L30.5632381,27.6995349 L25.4372381,27.6995349 L25.4372381,42.715814 C35.9553333,41.104186 44,32.2131163 44,21.4883721 C44,9.62065116 34.1502857,0 22,0 Z" id="Fill-1" fill="#47299D"></path>
            <g id="Group-5" transform="translate(12.571429, 8.186047)" fill="#FFFFFF">
                <path d="M17.9921238,19.5137953 L18.9674571,13.3026326 L12.8661238,13.3026326 L12.8661238,9.27100465 C12.8661238,7.5724 13.7178381,5.91574884 16.4510762,5.91574884 L19.2251714,5.91574884 L19.2251714,0.627562791 C19.2251714,0.627562791 16.7077429,0.208027907 14.3013619,0.208027907 C9.27593333,0.208027907 5.9906,3.18263256 5.9906,8.56802791 L5.9906,13.3026326 L0.404695238,13.3026326 L0.404695238,19.5137953 L5.9906,19.5137953 L5.9906,34.5300744 C7.11155238,34.7009581 8.25869524,34.7910047 9.42888571,34.7910047 C10.5980286,34.7910047 11.746219,34.7009581 12.8661238,34.5300744 L12.8661238,19.5137953 L17.9921238,19.5137953 Z" id="Fill-3"></path>
            </g>
        </g>
    </g>
</svg>