<?xml version="1.0" encoding="UTF-8"?>
<svg width="42px" height="43px" viewBox="0 0 42 43" version="1.1" xmlns="http://www.w3.org/2000/svg" xmlns:xlink="http://www.w3.org/1999/xlink">
    <!-- Generator: Sketch 56.1 (81669) - https://sketch.com -->
    <title>facebook-logo</title>
    <desc>Created with Sketch.</desc>
    <g id="facebook-logo" stroke="none" stroke-width="1" fill="none" fill-rule="evenodd">
        <g fill-rule="nonzero">
            <path d="M42,21 C42,9.402 32.598,0 21,0 C9.402,0 0,9.402 0,21 C0,31.481 7.679,40.17 17.719,41.745 L17.719,27.07 L12.387,27.07 L12.387,21 L17.719,21 L17.719,16.373 C17.719,11.11 20.854,8.203 25.651,8.203 C27.948,8.203 30.352,8.613 30.352,8.613 L30.352,13.781 L27.704,13.781 C25.095,13.781 24.281,15.4 24.281,17.061 L24.281,21 L30.105,21 L29.174,27.07 L24.281,27.07 L24.281,41.745 C34.321,40.17 42,31.481 42,21" id="Fill-1" fill="#1877F2"></path>
            <g id="Group-5" transform="translate(12.000000, 8.000000)" fill="#FFFFFF">
                <path d="M17.1743,19.0703 L18.1053,13.0003 L12.2813,13.0003 L12.2813,9.0603 C12.2813,7.4003 13.0943,5.7813 15.7033,5.7813 L18.3513,5.7813 L18.3513,0.6133 C18.3513,0.6133 15.9483,0.2033 13.6513,0.2033 C8.8543,0.2033 5.7183,3.1103 5.7183,8.3733 L5.7183,13.0003 L0.3863,13.0003 L0.3863,19.0703 L5.7183,19.0703 L5.7183,33.7453 C6.7883,33.9123 7.8833,34.0003 9.0003,34.0003 C10.1163,34.0003 11.2123,33.9123 12.2813,33.7453 L12.2813,19.0703 L17.1743,19.0703 Z" id="Fill-3"></path>
            </g>
        </g>
    </g>
</svg>