<?xml version="1.0" encoding="utf-8"?>
<!-- Generator: Adobe Illustrator 23.1.1, SVG Export Plug-In . SVG Version: 6.00 Build 0)  -->
<svg version="1.1" id="Layer_1" xmlns="http://www.w3.org/2000/svg" xmlns:xlink="http://www.w3.org/1999/xlink" x="0px" y="0px"
	 viewBox="0 0 38 54" style="enable-background:new 0 0 38 54;" xml:space="preserve">
<style type="text/css">
	.st0{fill-rule:evenodd;clip-rule:evenodd;fill:#F01109;}
	.st1{fill-rule:evenodd;clip-rule:evenodd;fill:#FFFFFF;}
</style>
<title>FV-pin</title>
<desc>Created with Sketch.</desc>
<path id="Fill-1" class="st0" d="M12,46.2C10.4,44,8.7,41.6,7,39c-1.7-2.6-3.1-5.5-4.4-8.7c-1.3-3.2-2.1-6.2-2.4-8.9
	C0.1,20.5,0,19.7,0,18.9c0-5.2,1.9-9.7,5.6-13.4C9.3,1.8,13.7,0,19,0s9.7,1.8,13.4,5.5c3.7,3.7,5.6,8.2,5.6,13.4
	c0,0.7-0.1,1.5-0.2,2.3c-0.3,2.8-1.1,5.8-2.4,9.1c-1.3,3.2-2.8,6.1-4.2,8.5c-1.5,2.4-3.2,4.9-5,7.4c-1.9,2.5-3.2,4.2-3.9,5
	s-1.3,1.5-1.7,1.9c-0.3,0.3-0.6,0.5-0.8,0.7C19.5,54,19.3,54,19.2,54c-0.1,0-0.3,0-0.5-0.1c-0.4-0.2-0.6-0.5-0.8-0.7
	c-0.1,0-0.6-0.6-1.7-1.8C15,50.1,13.7,48.4,12,46.2z"/>
<polygon id="Fill-2" class="st1" points="26.6,13 24.3,20.8 21.9,13 17.6,13 17.5,13 9,13 9,26.9 13,26.9 13,22.4 18.6,22.4 
	17.3,18.7 13,18.7 13,17 18.8,17 22.3,27 26.1,27 31,13 "/>
</svg>
