<svg id="Layer_1" data-name="Layer 1" xmlns="http://www.w3.org/2000/svg" xmlns:xlink="http://www.w3.org/1999/xlink" viewBox="0 0 100 100"><defs><style>.cls-1{fill:url(#linear-gradient);}.cls-2{fill:#fff;fill-rule:evenodd;}</style><linearGradient id="linear-gradient" x1="50" x2="50" y2="100" gradientUnits="userSpaceOnUse"><stop offset="0" stop-color="#7737ff"/><stop offset="1" stop-color="#b946f9"/></linearGradient></defs><title>Gaming</title><path class="cls-1" d="M50,2.31,91.3,26.15v47.7L50,97.69,8.7,73.85V26.15L50,2.31M50,0,6.7,25V75L50,100,93.3,75V25L50,0Z"/><path class="cls-2" d="M42.51,35.37H37.25a8.06,8.06,0,0,0-8,8V60.8a3.86,3.86,0,0,0,3.83,3.83h7a3.86,3.86,0,0,0,3.83-3.83V52.65A1.11,1.11,0,0,1,45,51.54H57a1.11,1.11,0,0,1,1.11,1.11V60.8A3.86,3.86,0,0,0,62,64.63h7a3.82,3.82,0,0,0,2.71-1.12h0a3.79,3.79,0,0,0,1.13-2.7V43.4a8.06,8.06,0,0,0-8-8H59.49a1.4,1.4,0,0,0-1,.4h0a1.35,1.35,0,0,0-.4,1v.53A1.11,1.11,0,0,1,57,38.37H45a1.11,1.11,0,0,1-1.11-1.11v-.53a1.37,1.37,0,0,0-1.36-1.36ZM50,46.16a1.11,1.11,0,0,1,0-2.22H52a1.11,1.11,0,0,1,0,2.22Zm-13.61-5.6a1.11,1.11,0,0,1,2.22,0v3.38H42a1.11,1.11,0,0,1,0,2.22H38.64v3.38a1.11,1.11,0,0,1-2.22,0V46.16H33a1.11,1.11,0,0,1,0-2.22h3.38V40.56Zm31.1,5.6a1.11,1.11,0,0,1,0-2.22h1.93a1.11,1.11,0,1,1,0,2.22Zm-8,0a1.11,1.11,0,1,1,0-2.22h1.93a1.11,1.11,0,0,1,0,2.22Zm4-4a1.11,1.11,0,0,1,0-2.22h1.94a1.11,1.11,0,0,1,0,2.22Zm0,8a1.12,1.12,0,0,1,0-2.23h1.94a1.12,1.12,0,0,1,0,2.23ZM49.89,35.47a1.11,1.11,0,0,1,2.22,0v.68H56a3.56,3.56,0,0,1,1-1.95h0a3.58,3.58,0,0,1,2.53-1.05h5.26A10.28,10.28,0,0,1,75,43.4V60.8a6,6,0,0,1-1.78,4.27h0a6,6,0,0,1-4.28,1.78H62a6.08,6.08,0,0,1-6.05-6v-7H46.09v7a6.08,6.08,0,0,1-6.05,6h-7a6.08,6.08,0,0,1-6-6V43.4A10.28,10.28,0,0,1,37.25,33.15h5.26A3.54,3.54,0,0,1,45,34.2h0a3.56,3.56,0,0,1,1,1.95h3.85Z"/></svg>