<svg xmlns="http://www.w3.org/2000/svg" viewBox="0 0 134.03 123.79"><defs><style>.cls-1{isolation:isolate;}.cls-2{opacity:0.35;}.cls-2,.cls-3{mix-blend-mode:multiply;}.cls-3{fill:#ccd;}.cls-4{fill:#54546c;}.cls-11,.cls-5{fill:#fff;}.cls-6{fill:#5f3eff;}.cls-7{fill:#3f29aa;}.cls-8{opacity:0.45;}.cls-9{fill:#b946f9;}.cls-10{fill:#8f4ee8;}.cls-11{opacity:0.42;}</style></defs><title>Ar_Headset</title><g class="cls-1"><g id="Layer_2" data-name="Layer 2"><g id="Layer_1-2" data-name="Layer 1"><g id="Ar_Headset"><path class="cls-2" d="M128.54,56.14l-6.7,2.14.53,2.76s2.35,4.32,3.7,6.51.16,6.83.16,6.83-.79-10.27-5.32-14.9S118,62,118,62s5.71,4.84,5.59,9.32S119.4,84.84,111.8,91.1s-18.23,12.79-27.4,16-9.48,3.11-9.48,3.11.31-.9-5.89-.81-20.1-.39-20.1-.39S32.15,99,26.11,93.28s-9.69-9.69,6.77-20.1,23.34-13.34,43.76-17,33,1.31,33,1.31l6.62-8.79s-5.78-4.55-30.48-4.55S36.42,56.42,25.9,61.72s-22.1,20-22.1,20S1.42,87.32,2,97s11.48,19.29,23.59,23.35,25.24,3.84,34.62,2.74,11.07-2.18,11.07-2.18,21.51-4.07,38.54-15.16,21.33-21.57,23.75-30.94S128.54,56.14,128.54,56.14Z"/><polygon class="cls-3" points="48.93 89.18 42.79 89.25 36.89 88.96 31.89 88.38 33.49 94.73 33.57 95.01 47.83 103.25 48.39 102.93 49.78 98.38 50.24 93.21 49.91 89.11 49.33 89.15 48.93 89.18"/><polygon class="cls-3" points="21.07 85.95 16.6 84.26 12.61 82.25 9.14 79.95 6.95 78.02 7.37 79.89 21.64 88.12 22.19 87.8 22.27 87.62 22.7 86.4 22.3 86.28 21.07 85.95"/><polygon class="cls-4" points="14.32 96.69 14.07 96.66 14 96.66 13.86 96.71 13.78 96.74 13.71 96.87 13.71 96.93 13.74 97.02 13.79 97.13 13.82 97.17 14.5 98.47 15.11 97.93 14.5 96.78 14.48 96.74 14.47 96.71 14.43 96.7 14.32 96.69"/><polygon class="cls-5" points="1.25 54.91 1.82 58.26 2.99 61.44 4.76 64.44 7.12 67.23 10.04 69.78 13.48 72.05 17.43 74.05 21.84 75.73 26.66 77.09 31.86 78.11 37.38 78.79 43.17 79.11 49.17 79.08 55.33 78.69 61.58 77.96 67.87 76.87 71.25 76.11 70.97 75.72 70.68 75.34 69.88 74.29 68.72 72.9 67.82 72.3 66.75 71.58 61.67 72.45 55.57 73.17 49.56 73.55 43.71 73.58 38.06 73.26 32.67 72.6 27.6 71.61 22.89 70.28 18.59 68.64 14.74 66.69 11.38 64.47 8.53 61.99 6.24 59.27 4.5 56.34 3.36 53.23 2.81 49.97 2.87 46.59 3.52 43.12 1.98 47.89 1.31 51.45 1.25 54.91"/><polygon class="cls-5" points="104.73 72.83 103.12 73.7 101.43 74.61 103.12 75.47 110.58 70.58 110.58 69.14 109.8 69.69 104.73 72.83"/><polygon class="cls-6" points="131.52 29.11 130.58 24.48 129.47 21.3 127.95 17 129.03 20.11 129.51 23.38 129.38 26.76 128.66 30.24 127.33 33.78 125.42 37.34 122.95 40.9 119.93 44.4 116.4 47.83 112.39 51.15 107.94 54.33 103.09 57.33 97.89 60.13 92.4 62.7 86.65 65.01 80.71 67.05 74.63 68.79 68.48 70.22 62.31 71.32 56.19 72.09 50.16 72.51 44.29 72.58 38.64 72.3 33.25 71.67 28.19 70.71 23.5 69.41 19.23 67.8 15.41 65.88 12.09 63.67 9.29 61.2 7.04 58.49 5.37 55.57 4.28 52.47 3.8 49.2 3.93 45.81 4.65 42.33 5.07 41.22 5.78 39.32 5.98 38.8 6.99 36.91 6.29 36.66 4.77 39.6 3.52 43.12 2.87 46.59 2.81 49.97 3.36 53.23 4.5 56.34 6.24 59.27 8.53 61.99 11.38 64.47 14.74 66.69 18.59 68.64 22.89 70.28 27.6 71.61 32.67 72.6 38.06 73.26 43.71 73.58 49.56 73.55 55.57 73.17 61.67 72.45 66.75 71.58 67.82 72.3 68.72 72.9 68.5 72.66 68.5 72.66 68.72 72.9 69.88 74.29 70.68 75.34 70.97 75.72 71.25 76.11 71.98 77.15 72.91 78.61 73.72 80.02 73.78 80.1 74.09 80.71 74.27 81.06 74.53 81.58 74.97 82.57 75.18 83.04 75.77 84.55 75.78 84.58 81.34 82.99 87.55 80.86 93.56 78.44 99.3 75.75 101.43 74.61 103.12 73.7 104.73 72.83 109.8 69.69 110.58 69.14 114.45 66.38 118.64 62.91 122.33 59.32 125.48 55.66 128.07 51.95 130.06 48.22 131.45 44.53 132.21 40.89 132.34 37.35 132.02 32.5 131.52 29.11"/><polygon class="cls-7" points="13.03 43.61 13.57 44.34 14.07 44.94 14.91 45.97 15.22 46.31 16.38 47.58 16.49 47.69 17.87 49.06 17.95 49.14 19.36 50.43 19.63 50.68 20.95 51.78 21.42 52.17 22.65 53.12 23.31 53.62 24.45 54.43 25.3 55.03 26.35 55.71 27.39 56.39 28.34 56.96 29.57 57.7 30.42 58.17 28.34 56.92 26.35 55.62 24.45 54.27 22.65 52.88 20.95 51.45 19.36 49.97 17.87 48.47 16.49 46.93 15.22 45.35 14.07 43.76 13.03 42.13 12.63 41.04 12.63 43.06 13.03 43.61"/><polygon class="cls-7" points="23.83 40.39 27.51 37.38 31.6 34.48 36.04 31.73 40.8 29.16 45.82 26.81 51.05 24.68 56.43 22.81 61.9 21.21 67.41 19.9 72.89 18.88 78.28 18.17 83.54 17.77 88.59 17.67 93.41 17.87 97.93 18.37 102.14 19.14 105.99 20.18 109.47 21.48 112.56 23.03 115.23 24.81 117.49 26.82 119.3 29.05 120.62 31.44 120.64 31.39 120.97 30.54 121.49 28.29 121.67 27.5 121.84 24.59 121.49 21.81 120.64 19.19 119.3 16.77 117.49 14.54 115.23 12.53 112.56 10.75 109.47 9.2 105.99 7.9 102.14 6.86 97.93 6.08 93.41 5.59 88.59 5.39 83.54 5.49 78.28 5.89 72.89 6.6 67.41 7.62 61.9 8.93 56.43 10.53 51.05 12.4 45.82 14.53 40.8 16.88 36.04 19.45 31.6 22.2 27.51 25.09 23.83 28.11 20.59 31.22 17.82 34.38 15.55 37.56 14.7 39.09 14.36 40.02 14.37 40.91 14.7 41.79 14.71 41.83 15.55 43.14 15.69 43.37 16.82 44.93 17.82 46.17 18.03 46.43 20.59 43.5 23.83 40.39"/><polygon class="cls-7" points="107.48 7.25 110.54 8.39 110.8 8.53 110.62 7.04 109.75 3.15 107.48 5.44 107.48 7.25"/><polygon class="cls-6" points="75.18 83.04 74.97 82.57 74.53 81.58 74.27 81.06 74.09 80.71 73.78 80.1 73.72 80.02 72.91 78.61 71.98 77.15 71.25 76.11 67.87 76.87 61.58 77.96 55.33 78.69 49.17 79.08 43.17 79.11 37.38 78.79 31.86 78.11 26.66 77.09 21.84 75.73 17.43 74.05 13.48 72.05 10.04 69.78 7.12 67.23 4.76 64.44 2.99 61.44 1.82 58.26 1.25 54.91 1.31 51.45 1.98 47.89 1.05 52.7 0.37 56.31 0.06 61.13 0 64.66 0.57 68.07 1.77 71.32 3.58 74.38 5.98 77.22 8.95 79.81 12.47 82.14 16.49 84.17 20.99 85.88 25.91 87.27 31.21 88.31 36.84 89 42.74 89.34 48.86 89.3 55.13 88.91 61.51 88.16 67.92 87.05 74.31 85.6 75.97 85.14 75.78 84.58 75.77 84.55 75.18 83.04"/><g class="cls-8"><polygon class="cls-9" points="67.92 87.05 61.51 88.16 55.13 88.91 48.86 89.3 42.74 89.34 36.84 89 31.21 88.31 25.91 87.27 20.99 85.88 16.49 84.17 12.47 82.14 8.95 79.81 5.98 77.22 3.58 74.38 1.77 71.32 0.57 68.07 0 64.66 0.32 69.37 0.89 72.76 1.82 77.25 2.99 80.44 4.5 84.6 6.6 88.45 8.27 91.28 10.83 94.6 12.98 97.15 14.5 98.47 13.82 97.17 13.79 97.13 13.74 97.02 13.71 96.93 13.71 96.87 13.78 96.74 13.86 96.71 14 96.66 14.07 96.66 14.32 96.69 14.43 96.7 14.47 96.71 15.06 96.93 15.99 97.44 17.2 98.17 18.23 98.89 19.1 99.6 19.5 99.96 19.85 100.24 20.46 100.77 20.62 100.91 20.92 101.17 21.19 101.4 21.27 101.48 23.92 103.91 26.22 104.79 30.53 105.97 35.13 106.73 39.98 107.05 45.09 106.94 50.44 106.37 56.01 105.34 60.61 104.15 61.79 103.81 67.76 101.66 70.81 100.33 73.91 98.4 73.92 98.27 73.91 98.4 74.1 98.22 75.46 96.81 76.65 95.03 76.94 94.3 77.22 93.58 77.26 93.46 77.3 93.34 77.26 91.88 77.15 90.44 77.09 89.94 77.02 89.43 76.95 88.99 76.64 87.49 76.25 86.02 76.11 85.58 75.97 85.14 74.31 85.6 67.92 87.05"/></g><path class="cls-10" d="M129,20.11,128,17l-1.68-2.92-2.21-2.67-4,1.31v2.64L119,14l-2.38-2.13L113.81,10l-3-1.5-.26-.14-3.06-1.14V5.44l2.27-2.29-4.63-1.28-5.06-1L94.67.28,89,0,83.15.07l-6,.42L71,1.26l-6.17,1.1L58.68,3.79,52.6,5.53l-5.94,2L40.92,9.88l-5.5,2.57-5.2,2.8-4.85,3-4.45,3.18-4,3.32-3.53,3.43-3,3.5L7.89,35.23,7,36.91,6,38.8l-.2.52-.71,1.9-.42,1.11-.72,3.48L3.8,49.2l.48,3.27,1.09,3.1L7,58.5l2.24,2.7,2.8,2.47,3.33,2.21,3.82,1.92,4.27,1.61,4.69,1.3,5.06,1,5.39.63,5.65.28,5.87-.07,6-.42,6.13-.77,6.17-1.1,6.15-1.43,6.08-1.74,5.94-2,5.75-2.32,5.5-2.56,5.19-2.8,4.85-3,4.45-3.18,4-3.32,3.53-3.43,3-3.5,2.47-3.56,1.91-3.56,1.33-3.54.73-3.48.12-3.38Zm-73,46.57L53.36,66l-2.66-.72-2.61-.78-2.55-.84-2.49-.9-2.42-1-2.36-1L36,59.75l-2.2-1.13-2.12-1.17-2-1.22L27.69,55l-1.85-1.31-1.76-1.36-1.66-1.4-1.56-1.44L19.4,48l-1.34-1.51,0,0-.21-.26-1-1.24-1.13-1.56-.14-.23-.84-1.31v0l-.33-.88V40l.34-.92.85-1.53,2.27-3.18,2.77-3.16,3.24-3.11,3.68-3L31.6,22.2,36,19.45l4.76-2.57,5-2.35,5.23-2.13,5.38-1.87,5.47-1.6,5.51-1.31,5.48-1,5.39-.71,5.26-.4,5-.1,4.82.2,4.52.5,4.21.77,3.85,1,3.48,1.3,3.09,1.55,2.67,1.78,2.26,2,1.8,2.23,1.35,2.42.85,2.62.35,2.77-.17,2.92-.18.79L121,30.54l-.33.85,0,.05-.88,2.21L118,36.82,115.71,40l-2.77,3.16-3.24,3.1-3.68,3-4.09,2.9-4.44,2.75-4.76,2.56-5,2.36L82.48,62,77.1,63.85l-5.47,1.6-5.51,1.31-2.65.49-1.6.19H60.32l-1.59-.2Zm.73,1.23,1.42.3h0Z"/><polygon class="cls-11" points="75.18 83.04 74.97 82.57 74.53 81.58 74.27 81.06 74.09 80.71 73.78 80.1 73.72 80.02 72.91 78.61 71.98 77.15 71.25 76.11 67.87 76.87 61.58 77.96 55.33 78.69 49.17 79.08 43.17 79.11 37.38 78.79 31.86 78.11 26.66 77.09 21.84 75.73 17.43 74.05 13.48 72.05 10.04 69.78 7.12 67.23 4.76 64.44 2.99 61.44 1.82 58.26 1.25 54.91 1.31 51.45 1.98 47.89 1.05 52.7 0.37 56.31 0.06 61.13 0 64.66 0.57 68.07 1.77 71.32 3.58 74.38 5.98 77.22 8.95 79.81 12.47 82.14 16.49 84.17 20.99 85.88 25.91 87.27 31.21 88.31 36.84 89 42.74 89.34 48.86 89.3 55.13 88.91 61.51 88.16 67.92 87.05 74.31 85.6 75.97 85.14 75.78 84.58 75.77 84.55 75.18 83.04"/></g></g></g></g></svg>