<?xml version="1.0" encoding="utf-8"?>
<!-- Generator: Adobe Illustrator 23.1.1, SVG Export Plug-In . SVG Version: 6.00 Build 0)  -->
<svg version="1.1" id="linkedin-logo" xmlns="http://www.w3.org/2000/svg" xmlns:xlink="http://www.w3.org/1999/xlink" x="0px"
	 y="0px" viewBox="0 0 42 42" style="enable-background:new 0 0 42 42;" xml:space="preserve">
<style type="text/css">
	.st0{fill-rule:evenodd;clip-rule:evenodd;fill:#0065A1;}
	.st1{fill-rule:evenodd;clip-rule:evenodd;fill:#FEFEFE;}
</style>
<path id="circle" class="st0" d="M21,42C9.4,42,0,32.6,0,21S9.4,0,21,0s21,9.4,21,21S32.6,42,21,42z"/>
<g id="logo" transform="translate(11.740757, 9.731323)">
	<path id="Fill-4" class="st1" d="M2-0.5c1.4,0,2.5,1.1,2.5,2.5c0,1.4-1.1,2.5-2.5,2.5C0.6,4.5-0.5,3.4-0.5,2
		C-0.5,0.6,0.6-0.5,2-0.5L2-0.5z M-0.2,20.2h4.3V6.4h-4.3V20.2z"/>
	<path id="Fill-6" class="st1" d="M6.8,6.4H11v1.9H11C11.6,7.2,13,6,15.1,6c4.4,0,5.2,2.9,5.2,6.6v7.6H16v-6.7c0-1.6,0-3.7-2.2-3.7
		c-2.2,0-2.6,1.7-2.6,3.6v6.8H6.8V6.4z"/>
</g>
</svg>
