<?xml version="1.0" encoding="utf-8"?>
<!-- Generator: Adobe Illustrator 23.1.1, SVG Export Plug-In . SVG Version: 6.00 Build 0)  -->
<svg version="1.1" id="Layer_1" xmlns="http://www.w3.org/2000/svg" xmlns:xlink="http://www.w3.org/1999/xlink" x="0px" y="0px"
	 viewBox="0 0 44 44" style="enable-background:new 0 0 44 44;" xml:space="preserve">
<style type="text/css">
	.st0{fill-rule:evenodd;clip-rule:evenodd;fill:#47299D;}
	.st1{fill-rule:evenodd;clip-rule:evenodd;fill:#FEFEFE;}
</style>
<title>linkedin-logo-purple</title>
<desc>Created with Sketch.</desc>
<path id="circle" class="st0" d="M22,44C9.8,44,0,34.2,0,22S9.8,0,22,0s22,9.8,22,22S34.2,44,22,44z"/>
<path id="Fill-4" class="st1" d="M14.4,9.7c1.5,0,2.6,1.2,2.6,2.6s-1.2,2.6-2.6,2.6s-2.6-1.2-2.6-2.6S12.9,9.7,14.4,9.7L14.4,9.7z
	 M12.1,31.4h4.5V16.9h-4.5V31.4z"/>
<path id="Fill-6" class="st1" d="M19.4,16.9h4.4v2l0,0c0.6-1.2,2.1-2.4,4.3-2.4c4.6,0,5.4,3,5.4,6.9v8h-4.5v-7c0-1.7,0-3.9-2.3-3.9
	S24,22.2,24,24.2v7.1h-4.6V16.9z"/>
</svg>
