<svg xmlns="http://www.w3.org/2000/svg" viewBox="0 0 736.46 726.68"><defs><style>.cls-1{fill:#b946f9;}.cls-2{fill:#7737ff;}.cls-3{fill:#8f4ee8;}.cls-4{fill:#fff;}</style></defs><title>VxR_logo</title><g id="Layer_2" data-name="Layer 2"><g id="VxR_logo"><polygon class="cls-1" points="368.18 0 59.72 178.09 368.18 356.18 676.65 178.09 368.18 0"/><polygon class="cls-2" points="676.65 178.09 368.18 356.19 368.18 726.68 676.65 548.59 676.65 178.09"/><polygon class="cls-3" points="59.72 178.09 368.18 356.19 368.18 726.68 59.72 548.59 59.72 178.09"/><path class="cls-4" d="M168.67,261.11l9.16-33.49h12.38l-15.48,46H162.6l-15.35-46h12.29Z"/><path class="cls-4" d="M204.45,273.62H193.39v-46h11.06Z"/><path class="cls-4" d="M234.69,261.39A4.58,4.58,0,0,0,233,257.6a21.71,21.71,0,0,0-6.05-2.81,58.81,58.81,0,0,1-7.08-2.81q-8.94-4.39-8.94-12.07a10.81,10.81,0,0,1,2.23-6.75,14.36,14.36,0,0,1,6.3-4.54,24.43,24.43,0,0,1,9.16-1.63,21.41,21.41,0,0,1,8.89,1.77,14.1,14.1,0,0,1,6.12,5,13.18,13.18,0,0,1,2.18,7.47H234.72a5.54,5.54,0,0,0-1.72-4.36,6.72,6.72,0,0,0-4.66-1.55,7.57,7.57,0,0,0-4.69,1.31,3.85,3.85,0,0,0,.17,6.54,23.8,23.8,0,0,0,6.67,3,40.58,40.58,0,0,1,7.83,3.3q7.45,4.31,7.46,11.85a11.25,11.25,0,0,1-4.55,9.48q-4.56,3.44-12.48,3.44a24.76,24.76,0,0,1-10.13-2,15.27,15.27,0,0,1-6.82-5.49,14.31,14.31,0,0,1-2.29-8h11.12q0,3.69,1.91,5.45t6.21,1.75a7.12,7.12,0,0,0,4.34-1.18A3.91,3.91,0,0,0,234.69,261.39Z"/><path class="cls-4" d="M262.45,273.62H251.39v-46h11.06Z"/><path class="cls-4" d="M308.1,251.57a27.21,27.21,0,0,1-2.49,11.91,18.45,18.45,0,0,1-7.1,8,19.67,19.67,0,0,1-10.47,2.8,20,20,0,0,1-10.42-2.7,18.42,18.42,0,0,1-7.1-7.73,26.46,26.46,0,0,1-2.67-11.53V249.7a27.28,27.28,0,0,1,2.48-11.92,18.43,18.43,0,0,1,7.11-8A20,20,0,0,1,288,227a19.71,19.71,0,0,1,10.42,2.78,18.72,18.72,0,0,1,7.13,7.91,26.56,26.56,0,0,1,2.57,11.77Zm-11.28-1.93q0-6.85-2.29-10.41a7.33,7.33,0,0,0-6.55-3.55q-8.34,0-8.82,12.51l0,3.38q0,6.75,2.25,10.39a7.79,7.79,0,0,0,13.14.06q2.26-3.57,2.3-10.26Z"/><path class="cls-4" d="M351.63,273.62h-11L324.3,245v28.62H313.21v-46H324.3l16.27,28.62V227.62h11.06Z"/><path class="cls-4" d="M252.61,348.87l31-58.86h69.13l-56.29,104.1,59.06,109.62H286l-33.58-63.21-33,63.21H149.5l59.25-109.62L152.66,290h69.92Z"/><path class="cls-4" d="M471,405.85H434.9v97.88H368.18V227H477.09q49.23,0,77,21.83t27.75,61.71q0,28.86-11.69,47.85t-36.59,30.76l57.78,111.73v2.86H519.86ZM434.9,354.53h42.19q19,0,28.61-10t9.6-27.92q0-17.89-9.7-28.1t-28.51-10.19H434.9Z"/><path class="cls-4" d="M587.15,231.36h-7v19.12h-5.67V231.36h-6.92V227h19.64Z"/><path class="cls-4" d="M596.77,227,602,243.33,607.24,227h7.46v23.49H609V245l.55-11.23-5.68,16.71h-3.75l-5.69-16.73L595,245v5.48h-5.66V227Z"/><polygon class="cls-1" points="676.75 476.43 617.03 510.91 676.75 545.39 736.46 510.91 676.75 476.43"/><polygon class="cls-2" points="736.46 510.91 676.75 545.39 676.75 617.11 736.46 582.63 736.46 510.91"/><polygon class="cls-3" points="617.03 510.91 676.75 545.39 676.75 617.11 617.03 582.63 617.03 510.91"/><polygon class="cls-1" points="59.72 109.14 0 143.62 59.72 178.09 119.43 143.62 59.72 109.14"/><polygon class="cls-2" points="119.43 143.62 59.72 178.09 59.72 250.03 119.43 212.55 119.43 143.62"/><polygon class="cls-3" points="0 143.62 59.72 178.09 59.72 249.82 0 212.55 0 143.62"/></g></g></svg>