<svg xmlns="http://www.w3.org/2000/svg" viewBox="0 0 40.82 103.31"><defs><style>.cls-1{fill:#09425e;}.cls-2{fill:#3f29aa;}.cls-3{fill:#5f3eff;}.cls-4{fill:#fff;}.cls-5{fill:#b946f9;}</style></defs><title>mobile</title><g id="Layer_2" data-name="Layer 2"><g id="Layer_1-2" data-name="Layer 1"><path class="cls-1" d="M3.12,99A2.49,2.49,0,0,0,0,100.61a2.48,2.48,0,0,0,2.25,2.63,2.47,2.47,0,0,0,3.08-1.57A2.47,2.47,0,0,0,3.12,99Z"/><path class="cls-1" d="M38.34.07a2.47,2.47,0,0,0-3.08,1.57A2.47,2.47,0,0,0,37.5,4.27,2.49,2.49,0,0,0,40.59,2.7,2.48,2.48,0,0,0,38.34.07Z"/><path class="cls-2" d="M36.17.37,2.06,20.06A4.56,4.56,0,0,0,0,23.63v77c0,1.31,1.14,1.84,2.28,1.18l34.11-19.7a4.53,4.53,0,0,0,2.06-3.56l-.21-77C38.24.24,37.31-.29,36.17.37Z"/><path class="cls-3" d="M38.54,1.62,4.43,21.31a4.55,4.55,0,0,0-2,3.57l.2,77c0,1.3.94,1.83,2.08,1.18l34.11-19.7a4.52,4.52,0,0,0,2-3.56l-.2-77C40.61,1.49,39.68,1,38.54,1.62Z"/><polygon class="cls-4" points="5.23 33.07 5.39 94 37.92 75.22 37.77 14.28 5.23 33.07"/><polygon class="cls-5" points="5.21 29.35 5.23 34.01 37.77 15.22 37.74 10.57 5.21 29.35"/><path class="cls-1" d="M22.73,14.24l-2.27,1.31a2.17,2.17,0,0,0-1,1.71c0,.63.44.88,1,.56l2.27-1.31a2.18,2.18,0,0,0,1-1.7C23.72,14.18,23.28,13.93,22.73,14.24Z"/></g></g></svg>