<svg xmlns="http://www.w3.org/2000/svg" viewBox="0 0 178.47 160.96"><defs><style>.cls-1{fill:#b946f9;}.cls-2{fill:#7737ff;}.cls-3{fill:#8f4ee8;}.cls-4,.cls-5,.cls-6{fill:none;stroke:#eb0f0f;stroke-miterlimit:10;stroke-width:2.3px;}.cls-5{stroke-dasharray:6.77 4.52;}.cls-6{stroke-dasharray:6.23 6.23;}</style></defs><title>Platform</title><g id="Layer_2" data-name="Layer 2"><g id="Layer_1-2" data-name="Layer 1"><g id="Platform"><polygon class="cls-1" points="20.64 17.05 0 28.97 20.64 40.89 41.29 28.97 20.64 17.05"/><polygon class="cls-2" points="41.29 28.97 20.64 40.89 20.64 65.68 41.29 53.76 41.29 28.97"/><polygon class="cls-3" points="0 28.97 20.64 40.89 20.64 65.68 0 53.76 0 28.97"/><polyline class="cls-4" points="23.99 38.77 21 40.48 20.98 43.92"/><line class="cls-5" x1="20.95" y1="48.44" x2="20.54" y2="113.92"/><polyline class="cls-4" points="20.53 116.18 20.51 119.63 23.48 121.37"/><line class="cls-5" x1="27.38" y1="123.65" x2="83.89" y2="156.75"/><polyline class="cls-4" points="85.83 157.89 88.81 159.63 91.8 157.93"/><line class="cls-5" x1="95.73" y1="155.69" x2="152.64" y2="123.3"/><polyline class="cls-4" points="154.61 122.18 157.6 120.48 157.62 117.03"/><line class="cls-5" x1="157.65" y1="112.52" x2="158.06" y2="47.03"/><polyline class="cls-4" points="158.07 44.77 158.09 41.33 155.12 39.59"/><line class="cls-5" x1="151.22" y1="37.3" x2="94.71" y2="4.21"/><polyline class="cls-4" points="92.77 3.07 89.79 1.33 86.8 3.03"/><line class="cls-5" x1="82.87" y1="5.26" x2="25.96" y2="37.65"/><line class="cls-6" x1="89.75" y1="8.71" x2="88.85" y2="152.24"/><line class="cls-6" x1="27.37" y1="44.21" x2="151.23" y2="116.75"/><line class="cls-6" x1="151.67" y1="44.98" x2="26.93" y2="115.97"/><polygon class="cls-1" points="157.82 95.5 137.18 107.42 157.82 119.34 178.47 107.42 157.82 95.5"/><polygon class="cls-2" points="178.47 107.42 157.82 119.34 157.82 144.14 178.47 132.22 178.47 107.42"/><polygon class="cls-3" points="137.18 107.42 157.82 119.34 157.82 144.14 137.18 132.22 137.18 107.42"/></g></g></g></svg>