<svg id="Layer_1" data-name="Layer 1" xmlns="http://www.w3.org/2000/svg" xmlns:xlink="http://www.w3.org/1999/xlink" viewBox="0 0 100 100"><defs><style>.cls-1{fill:url(#linear-gradient);}.cls-2{fill:#fff;fill-rule:evenodd;}</style><linearGradient id="linear-gradient" x1="50" x2="50" y2="100" gradientUnits="userSpaceOnUse"><stop offset="0" stop-color="#7737ff"/><stop offset="1" stop-color="#b946f9"/></linearGradient></defs><title>Retail</title><path class="cls-1" d="M50,2.31,91.3,26.15v47.7L50,97.69,8.7,73.85V26.15L50,2.31M50,0,6.7,25V75L50,100,93.3,75V25L50,0Z"/><path class="cls-2" d="M32.57,33.25a1.51,1.51,0,0,0,.61-.12,1.67,1.67,0,0,0,.52-.34,1.8,1.8,0,0,0,.34-.52,1.61,1.61,0,0,0,0-1.22,1.67,1.67,0,0,0-.34-.52,1.61,1.61,0,0,0-.52-.34,1.61,1.61,0,0,0-1.22,0,1.6,1.6,0,0,0-.51.35l-.07.06a1.56,1.56,0,0,0-.29.46,1.64,1.64,0,0,0-.11.6,1.51,1.51,0,0,0,.12.61,1.46,1.46,0,0,0,.35.51l0,0a1.64,1.64,0,0,0,.47.3,1.51,1.51,0,0,0,.61.12ZM60.78,69.93a2.54,2.54,0,0,0,1-.19,2.45,2.45,0,0,0,.81-.54h0a2.67,2.67,0,0,0,.54-.81,2.58,2.58,0,0,0,.19-1,2.53,2.53,0,0,0-.19-1,2.5,2.5,0,0,0-2.32-1.54,2.53,2.53,0,0,0-1,.19,2.55,2.55,0,0,0-.81.54,2.65,2.65,0,0,0-.51.74l-.06.14a2.56,2.56,0,0,0,0,1.86,2.67,2.67,0,0,0,.54.81l.05,0a2.57,2.57,0,0,0,.76.5,2.53,2.53,0,0,0,1,.19Zm1.82,1.9a4.76,4.76,0,0,1-3.63,0,5.18,5.18,0,0,1-1.49-1l-.07-.07a4.88,4.88,0,0,1-1-1.55A4.8,4.8,0,0,1,56,67.42a2.35,2.35,0,0,1,0-.26H43.59v.26a4.62,4.62,0,0,1-.36,1.82,4.72,4.72,0,0,1-1,1.55h0a5,5,0,0,1-1.55,1,4.78,4.78,0,0,1-3.64,0,5,5,0,0,1-1.48-1l-.07-.07a4.72,4.72,0,0,1-1-1.55,4.78,4.78,0,0,1,1-5.19,4.71,4.71,0,0,1,1.19-.86l-.45-5.66a.49.49,0,0,1,0-.12L34.42,35a2.64,2.64,0,0,1-.38.18,3.86,3.86,0,0,1-1.47.3,3.94,3.94,0,0,1-2.65-1.06l-.07-.07A3.87,3.87,0,0,1,29,33.13a4.05,4.05,0,0,1-.29-1.47A3.89,3.89,0,0,1,29.79,29l.06,0a3.7,3.7,0,0,1,1.25-.83,3.82,3.82,0,0,1,1.47-.3,3.86,3.86,0,0,1,1.47.3,3.8,3.8,0,0,1,1.25.83h0a3.74,3.74,0,0,1,.83,1.25,3.9,3.9,0,0,1,.3,1.44l.48,6.08,16.15,1h.15l17,1.06h0a1.19,1.19,0,0,1,.46.15h0l.07,0h0l0,0h0a.43.43,0,0,1,.11.12h0a1.17,1.17,0,0,1,.18.41h0a.36.36,0,0,1,0,.11v0h0v0h0v.06h0V41h0v0h0v0h0v0a.5.5,0,0,1,0,.12L69.07,52.68a7.13,7.13,0,0,1-7,5.83H38.54l.33,4.15a4.68,4.68,0,0,1,1.78.36,4.67,4.67,0,0,1,2.22,1.88H56.74a5.57,5.57,0,0,1,.67-.85A5,5,0,0,1,59,63a4.88,4.88,0,0,1,1.82-.36A4.8,4.8,0,0,1,62.6,63a4.75,4.75,0,0,1,2.95,4.4,4.8,4.8,0,0,1-.36,1.82,4.75,4.75,0,0,1-1,1.55h0a4.86,4.86,0,0,1-1.55,1Zm-23.77-1.9a2.49,2.49,0,0,0,1-.19,2.35,2.35,0,0,0,.81-.54h0a2.7,2.7,0,0,0,.55-.81,2.58,2.58,0,0,0,.19-1,2.55,2.55,0,0,0-.16-.88.47.47,0,0,1-.06-.15,2.68,2.68,0,0,0-.52-.74,2.45,2.45,0,0,0-.81-.54,2.52,2.52,0,0,0-1.92,0,2.45,2.45,0,0,0-.81.54,2.59,2.59,0,0,0-.55.81,2.52,2.52,0,0,0-.18,1,2.58,2.58,0,0,0,.18,1,2.7,2.7,0,0,0,.55.81l0,0a2.75,2.75,0,0,0,.77.5,2.49,2.49,0,0,0,1,.19ZM37.08,40l1.28,16.27h5.38l-.17-15.86L37.08,40Zm8.74.55L46,56.25h5.92V40.91l-6.1-.38Zm8.36.52v15.2H60.1l.08-7.14c0-2.54,0-5.08.07-7.68l-6.07-.38Zm8.17,15.19a4.84,4.84,0,0,0,4.5-4l2-10.31-6.31-.39c0,2.56,0,5-.07,7.56Z"/></svg>