<?xml version="1.0" encoding="utf-8"?>
<!-- Generator: Adobe Illustrator 23.1.1, SVG Export Plug-In . SVG Version: 6.00 Build 0)  -->
<svg version="1.1" id="Layer_1" xmlns="http://www.w3.org/2000/svg" xmlns:xlink="http://www.w3.org/1999/xlink" x="0px" y="0px"
	 viewBox="0 0 187 85" style="enable-background:new 0 0 187 85;" xml:space="preserve">
<style type="text/css">
	.st0{fill:#B946F9;}
	.st1{fill:#7737FF;}
	.st2{fill:#F01109;}
</style>
<title>Squares</title>
<desc>Created with Sketch.</desc>
<polygon class="st0" points="42.4,84.9 38.9,81.3 40.3,79.9 42.4,82 44.5,79.9 46,81.3 "/>
<path class="st0" d="M36.2,78.6l-5.4-5.4l1.4-1.4l5.4,5.4L36.2,78.6z M28,70.4L22.6,65l1.4-1.4l5.4,5.4L28,70.4z M19.9,62.3
	l-5.4-5.4l1.4-1.4l5.4,5.4L19.9,62.3z M11.7,54.1l-5.4-5.4l1.4-1.4l5.4,5.4L11.7,54.1z"/>
<polygon class="st0" points="3.5,46 0,42.4 3.5,38.9 4.9,40.3 2.8,42.4 4.9,44.5 "/>
<path class="st0" d="M7.7,37.6l-1.4-1.4l5.4-5.4l1.4,1.4L7.7,37.6z M15.8,29.4L14.4,28l5.4-5.4l1.4,1.4L15.8,29.4z M24,21.3
	l-1.4-1.4l5.4-5.4l1.4,1.4L24,21.3z M32.1,13.1l-1.4-1.4l5.4-5.4l1.4,1.4L32.1,13.1z"/>
<polygon class="st0" points="40.3,4.9 38.9,3.5 42.4,0 46,3.5 44.5,4.9 42.4,2.8 "/>
<path class="st0" d="M77.2,37.6l-5.4-5.4l1.4-1.4l5.4,5.4L77.2,37.6z M69,29.4L63.6,24l1.4-1.4l5.4,5.4L69,29.4z M60.9,21.3
	l-5.4-5.4l1.4-1.4l5.4,5.4L60.9,21.3z M52.7,13.1l-5.4-5.4l1.4-1.4l5.4,5.4L52.7,13.1z"/>
<polygon class="st0" points="81.3,46 79.9,44.5 82,42.4 79.9,40.3 81.3,38.9 84.9,42.4 "/>
<path class="st0" d="M48.7,78.6l-1.4-1.4l5.4-5.4l1.4,1.4L48.7,78.6z M56.8,70.4L55.4,69l5.4-5.4l1.4,1.4L56.8,70.4z M65,62.3
	l-1.4-1.4l5.4-5.4l1.4,1.4L65,62.3z M73.2,54.1l-1.4-1.4l5.4-5.4l1.4,1.4L73.2,54.1z"/>
<polygon class="st1" points="144.4,84.9 140.9,81.3 142.3,79.9 144.4,82 146.5,79.9 148,81.3 "/>
<path class="st1" d="M138.2,78.6l-5.4-5.4l1.4-1.4l5.4,5.4L138.2,78.6z M130,70.4l-5.4-5.4l1.4-1.4l5.4,5.4L130,70.4z M121.9,62.3
	l-5.4-5.4l1.4-1.4l5.4,5.4L121.9,62.3z M113.7,54.1l-5.4-5.4l1.4-1.4l5.4,5.4L113.7,54.1z"/>
<polygon class="st1" points="105.5,46 102,42.4 105.5,38.9 107,40.3 104.8,42.4 107,44.5 "/>
<path class="st1" d="M109.7,37.6l-1.4-1.4l5.4-5.4l1.4,1.4L109.7,37.6z M117.8,29.4l-1.4-1.4l5.4-5.4l1.4,1.4L117.8,29.4z M126,21.3
	l-1.4-1.4l5.4-5.4l1.4,1.4L126,21.3z M134.1,13.1l-1.4-1.4l5.4-5.4l1.4,1.4L134.1,13.1z"/>
<polygon class="st1" points="142.3,4.9 140.9,3.5 144.4,0 148,3.5 146.5,4.9 144.4,2.8 "/>
<path class="st1" d="M179.2,37.6l-5.4-5.4l1.4-1.4l5.4,5.4L179.2,37.6z M171,29.4l-5.4-5.4l1.4-1.4l5.4,5.4L171,29.4z M162.9,21.3
	l-5.4-5.4l1.4-1.4l5.4,5.4L162.9,21.3z M154.7,13.1l-5.4-5.4l1.4-1.4l5.4,5.4L154.7,13.1z"/>
<polygon class="st1" points="183.3,46 181.9,44.5 184,42.4 181.9,40.3 183.3,38.9 186.9,42.4 "/>
<path class="st1" d="M150.7,78.6l-1.4-1.4l5.4-5.4l1.4,1.4L150.7,78.6z M158.8,70.4l-1.4-1.4l5.4-5.4l1.4,1.4L158.8,70.4z M167,62.3
	l-1.4-1.4l5.4-5.4l1.4,1.4L167,62.3z M175.2,54.1l-1.4-1.4l5.4-5.4l1.4,1.4L175.2,54.1z"/>
<polygon class="st2" points="93.4,84.9 89.9,81.3 91.3,79.9 93.4,82 95.5,79.9 97,81.3 "/>
<path class="st2" d="M87.2,78.6l-5.4-5.4l1.4-1.4l5.4,5.4L87.2,78.6z M79,70.4L73.6,65l1.4-1.4l5.4,5.4L79,70.4z M70.9,62.3
	l-5.4-5.4l1.4-1.4l5.4,5.4L70.9,62.3z M62.7,54.1l-5.4-5.4l1.4-1.4l5.4,5.4L62.7,54.1z"/>
<polygon class="st2" points="54.5,46 51,42.4 54.5,38.9 55.9,40.3 53.8,42.4 55.9,44.5 "/>
<path class="st2" d="M58.7,37.6l-1.4-1.4l5.4-5.4l1.4,1.4L58.7,37.6z M66.8,29.4L65.4,28l5.4-5.4l1.4,1.4L66.8,29.4z M75,21.3
	l-1.4-1.4l5.4-5.4l1.4,1.4L75,21.3z M83.1,13.1l-1.4-1.4l5.4-5.4l1.4,1.4L83.1,13.1z"/>
<polygon class="st2" points="91.3,4.9 89.9,3.5 93.4,0 97,3.5 95.5,4.9 93.4,2.8 "/>
<path class="st2" d="M128.2,37.6l-5.4-5.4l1.4-1.4l5.4,5.4L128.2,37.6z M120,29.4l-5.4-5.4l1.4-1.4l5.4,5.4L120,29.4z M111.9,21.3
	l-5.4-5.4l1.4-1.4l5.4,5.4L111.9,21.3z M103.7,13.1l-5.4-5.4l1.4-1.4l5.4,5.4L103.7,13.1z"/>
<polygon class="st2" points="132.3,46 130.9,44.5 133,42.4 130.9,40.3 132.3,38.9 135.9,42.4 "/>
<path class="st2" d="M99.7,78.6l-1.4-1.4l5.4-5.4l1.4,1.4L99.7,78.6z M107.8,70.4l-1.4-1.4l5.4-5.4l1.4,1.4L107.8,70.4z M116,62.3
	l-1.4-1.4l5.4-5.4l1.4,1.4L116,62.3z M124.2,54.1l-1.4-1.4l5.4-5.4l1.4,1.4L124.2,54.1z"/>
</svg>
