<svg id="Layer_1" data-name="Layer 1" xmlns="http://www.w3.org/2000/svg" xmlns:xlink="http://www.w3.org/1999/xlink" viewBox="0 0 100 100"><defs><style>.cls-1{fill:url(#linear-gradient);}.cls-2{fill:#fff;fill-rule:evenodd;}</style><linearGradient id="linear-gradient" x1="50" x2="50" y2="100" gradientUnits="userSpaceOnUse"><stop offset="0" stop-color="#7737ff"/><stop offset="1" stop-color="#b946f9"/></linearGradient></defs><title>Training</title><path class="cls-1" d="M50,2.31,91.3,26.15v47.7L50,97.69,8.7,73.85V26.15L50,2.31M50,0,6.7,25V75L50,100,93.3,75V25L50,0Z"/><path class="cls-2" d="M57.65,53.32a.87.87,0,0,1,.07.17,9.16,9.16,0,0,0,1.16,1.93,7.16,7.16,0,0,0,.57.65l.14.15a6.61,6.61,0,0,0,1.19.91,3.3,3.3,0,0,0,3.62,0,6.55,6.55,0,0,0,1.18-.91,1.06,1.06,0,0,1,.15-.15c.19-.2.38-.42.57-.65A9.31,9.31,0,0,0,67.66,53a7.56,7.56,0,0,0,.47-2.55V50.3c0-.12,0-.24,0-.37s0-.83,0-1.43c.06-3.53.11-6.22-5.57-6.22S57,45,57,48.5c0,.6,0,1.2,0,1.43a.67.67,0,0,1,0,.16v.12a1,1,0,0,1,0,.25A7.53,7.53,0,0,0,57.51,53l.14.35ZM49,56.16v-1h6.7A11.9,11.9,0,0,0,56.87,57c.14.18.29.36.44.53v.22c0,.62-.1,1.38-.16,1.86l-.61.38a14.6,14.6,0,0,0-5.6,2.31,5.33,5.33,0,0,0-2.38,4.3h0v6.19a1.27,1.27,0,0,0,1.27,1.27l25.51,0a1.27,1.27,0,0,0,1.27-1.28V66.59h0a5.35,5.35,0,0,0-2.37-4.3A14.71,14.71,0,0,0,68.64,60L68,59.6c-.06-.48-.11-1.24-.15-1.86v-.22c.15-.17.3-.35.44-.53a11.3,11.3,0,0,0,1.75-3.16,10.09,10.09,0,0,0,.64-3.41v-.05h0v-.44c0-.73,0-1.07,0-1.39.07-4,.13-7.29-4.18-8.4V28.5h.29a1.28,1.28,0,1,0,0-2.55H28.66a1.28,1.28,0,1,0,0,2.55H29V53.9a1.27,1.27,0,0,0,1.27,1.28H46.46v1a1.28,1.28,0,0,0,2.55,0ZM64,28.5H31.5V52.63H54.76a9.28,9.28,0,0,1-.27-2.21v-.49c0-.73,0-1.07,0-1.39-.09-5-.16-8.82,8.12-8.82.49,0,.95,0,1.38,0V28.5Zm-12.87,43V66.59h0a2.9,2.9,0,0,1,1.36-2.26,12.23,12.23,0,0,1,4.8-1.91,1.14,1.14,0,0,0,.35-.13,5,5,0,0,0,1.84,1.46,7.27,7.27,0,0,0,1.87.59l0,7.15-10.26,0Zm12.8,0,0-7.16a7,7,0,0,0,1.73-.58,5.93,5.93,0,0,0,2-1.47,1.28,1.28,0,0,0,.37.14,12.23,12.23,0,0,1,4.8,1.91,2.9,2.9,0,0,1,1.36,2.26h0v4.88l-10.17,0ZM59.54,60.58a10.64,10.64,0,0,0,.17-1.13,5.75,5.75,0,0,0,5.75,0,11.06,11.06,0,0,0,.17,1.13,2.93,2.93,0,0,1-1.14.88,4.46,4.46,0,0,1-1.9.45,4.94,4.94,0,0,1-2-.45A2.19,2.19,0,0,1,59.54,60.58ZM59.5,35h-23A1.5,1.5,0,0,1,35,33.5h0A1.5,1.5,0,0,1,36.5,32h23A1.5,1.5,0,0,1,61,33.5h0A1.5,1.5,0,0,1,59.5,35Zm-8.71,6H36.21A1.22,1.22,0,0,1,35,39.79v-.58A1.22,1.22,0,0,1,36.21,38H50.79A1.22,1.22,0,0,1,52,39.21v.58A1.22,1.22,0,0,1,50.79,41Zm0,6H36.21A1.22,1.22,0,0,1,35,45.79v-.58A1.22,1.22,0,0,1,36.21,44H50.79A1.22,1.22,0,0,1,52,45.21v.58A1.22,1.22,0,0,1,50.79,47Z"/></svg>