<?xml version="1.0" encoding="utf-8"?>
<!-- Generator: Adobe Illustrator 23.1.1, SVG Export Plug-In . SVG Version: 6.00 Build 0)  -->
<svg version="1.1" id="Layer_1" xmlns="http://www.w3.org/2000/svg" xmlns:xlink="http://www.w3.org/1999/xlink" x="0px" y="0px"
	 viewBox="0 0 44 44" style="enable-background:new 0 0 44 44;" xml:space="preserve">
<style type="text/css">
	.st0{fill-rule:evenodd;clip-rule:evenodd;fill:#47299D;}
	.st1{fill-rule:evenodd;clip-rule:evenodd;fill:#FFFFFF;}
</style>
<path id="Fill-1" class="st0" d="M44,22c0,12.2-9.8,22-22,22S0,34.2,0,22S9.8,0,22,0S44,9.8,44,22"/>
<path id="Fill-3" class="st1" d="M16.9,33.2c10.4,0,16.1-8.6,16.1-16.1c0-0.2,0-0.5,0-0.7c1.1-0.8,2.1-1.8,2.8-2.9
	c-1,0.4-2.1,0.8-3.2,0.9c1.2-0.7,2.1-1.8,2.5-3.1c-1.1,0.6-2.3,1.1-3.6,1.4c-1-1.1-2.5-1.8-4.1-1.8c-3.1,0-5.6,2.5-5.6,5.6
	c0,0.4,0,0.9,0.1,1.3c-4.7-0.2-8.8-2.5-11.6-5.9c-0.5,0.8-0.8,1.8-0.8,2.8c0,2,1,3.7,2.5,4.7c-0.9,0-1.8-0.3-2.6-0.7c0,0,0,0,0,0.1
	c0,2.7,1.9,5,4.5,5.5c-0.5,0.1-1,0.2-1.5,0.2c-0.4,0-0.7,0-1.1-0.1c0.7,2.2,2.8,3.9,5.3,3.9c-1.9,1.5-4.4,2.4-7,2.4
	c-0.5,0-0.9,0-1.3-0.1C10.7,32.2,13.7,33.2,16.9,33.2"/>
</svg>
