<?xml version="1.0" encoding="UTF-8"?>
<svg width="42px" height="42px" viewBox="0 0 42 42" version="1.1" xmlns="http://www.w3.org/2000/svg" xmlns:xlink="http://www.w3.org/1999/xlink">
    <!-- Generator: Sketch 56.1 (81669) - https://sketch.com -->
    <title>twitter-logo</title>
    <desc>Created with Sketch.</desc>
    <g id="twitter-logo" stroke="none" stroke-width="1" fill="none" fill-rule="evenodd">
        <g>
            <g>
                <path d="M42,21 C42,32.598 32.598,42 21,42 C9.402,42 0,32.598 0,21 C0,9.402 9.402,0 21,0 C32.598,0 42,9.402 42,21" id="Fill-1" fill="#1DA1F2"></path>
                <path d="M16.1304,31.667 C26.0364,31.667 31.4534,23.46 31.4534,16.344 C31.4534,16.11 31.4484,15.878 31.4384,15.647 C32.4894,14.887 33.4034,13.938 34.1254,12.858 C33.1604,13.287 32.1214,13.576 31.0324,13.707 C32.1444,13.04 32.9974,11.985 33.4004,10.728 C32.3594,11.345 31.2074,11.793 29.9804,12.035 C28.9984,10.988 27.5984,10.333 26.0494,10.333 C23.0754,10.333 20.6634,12.745 20.6634,15.719 C20.6634,16.141 20.7104,16.552 20.8024,16.946 C16.3274,16.722 12.3584,14.578 9.7024,11.319 C9.2394,12.115 8.9724,13.04 8.9724,14.026 C8.9724,15.895 9.9234,17.544 11.3694,18.509 C10.4854,18.482 9.6554,18.239 8.9304,17.836 C8.9284,17.858 8.9284,17.881 8.9284,17.904 C8.9284,20.513 10.7854,22.69 13.2494,23.185 C12.7974,23.308 12.3214,23.373 11.8304,23.373 C11.4834,23.373 11.1454,23.339 10.8174,23.276 C11.5034,25.416 13.4914,26.973 15.8484,27.017 C14.0054,28.462 11.6834,29.322 9.1594,29.322 C8.7254,29.322 8.2964,29.298 7.8754,29.248 C10.2584,30.775 13.0884,31.667 16.1304,31.667" id="Fill-3" fill="#FFFFFF"></path>
            </g>
        </g>
    </g>
</svg>