<svg xmlns="http://www.w3.org/2000/svg" viewBox="0 0 149.79 132.56"><defs><style>.cls-1{isolation:isolate;}.cls-2{opacity:0.5;mix-blend-mode:multiply;}.cls-3{fill:#3f29aa;}.cls-4{fill:#271763;}.cls-5{fill:#8f4ee8;}.cls-6{fill:#5f3eff;}.cls-7{fill:#8282a7;}.cls-8{fill:#757595;}.cls-9{fill:#b946f9;}.cls-10{fill:#272733;}.cls-11{fill:none;}.cls-12{fill:#fff;}</style></defs><title>VR_Headset</title><g class="cls-1"><g id="Layer_2" data-name="Layer 2"><g id="Layer_1-2" data-name="Layer 1"><g id="VR_Headset"><path class="cls-2" d="M22.59,91.33s-.72,0-.72,1.86.36,7.74.36,7.74,0,1.14,1.58,2.4,7.76,12,14.67,16.08,5.85,2.44,10.75,5.09,9.4,3.63,10.14,5.09,12.78,3.56,14.42,2.57S81,128,82.62,127.25a15.81,15.81,0,0,0,1.74-1,.8.8,0,0,0,.35-.66v-1a.8.8,0,0,1,.34-.65,42.43,42.43,0,0,0,3.77-2.89,23.36,23.36,0,0,0,2.44-2.7.8.8,0,0,1,.64-.31,36.74,36.74,0,0,0,7.14-.46c2.37-.59,4.22-1.66,4.3-2.29s-.34-1.42.3-1.7,15.69-11.16,17.34-12.27,12.12-8.8,14.65-10.74a60.77,60.77,0,0,0,8.68-7.93,23.4,23.4,0,0,0,4.74-10.85,27.1,27.1,0,0,0-.82-10.9c-.63-2.44-4.41-6.3-5.36-7.24a.87.87,0,0,1-.24-.52l-.07-1.44a.8.8,0,0,0-.4-.64l-11.65-6.7a.81.81,0,0,0-.81,0l-.84.51a.79.79,0,0,1-.69.06l-2-.76a.92.92,0,0,0-.28,0h-1.42l-.18,0c-.41-.09-2.25-.51-4.06-.89-1.5-.32-2.52-.51-3-.59a.33.33,0,0,1-.28-.28l0-.3a.34.34,0,0,0-.33-.29l-10-.42a.32.32,0,0,0-.34.27l-.08.33a.33.33,0,0,1-.32.26c-1.76.06-11.93.51-19.59,2.88-8.41,2.6-21,9-21,9l-7.46,4-3,6.55,2.45-1.29s11.84-5.77,16.77-8.06a103.9,103.9,0,0,1,14.65-5.64,121.19,121.19,0,0,1,15.82-2.45,10.63,10.63,0,0,1,2.85,0l.19.49a.33.33,0,0,0,.31.22l3.13,0s-12.36,5.48-22,11.21-18,11.29-18,11.29l20.2,1.34s.83-1.42,5.25-4.11a192.64,192.64,0,0,1,18.87-10.2c6.7-3.06,13.2-5.34,14.23-5.69a.29.29,0,0,1,.27,0c1.11.58,9,4.75,10.53,6.4S146.84,65.64,147,68s-1.06,8.8-8.05,14.17-26.6,20-28.73,21.43-7,4.85-7,4.85H87.26Z"/><polygon class="cls-3" points="103.4 81.7 102.67 80.06 101.51 78.65 99.96 77.52 98.1 76.75 96.03 76.37 93.88 76.4 91.37 76.56 88.86 76.65 86.36 76.69 83.87 76.65 81.39 76.56 78.94 76.4 76.51 76.18 74.1 75.9 71.74 75.56 69.41 75.15 67.12 74.69 64.88 74.16 62.69 73.58 60.55 72.94 58.48 72.25 56.47 71.5 54.52 70.7 53.11 70.06 52.64 70.8 52.35 71.26 52.64 71.41 54.52 72.26 56.47 73.06 58.48 73.81 60.55 74.51 60.97 74.63 62.69 75.15 64.88 75.74 65.08 75.79 67.12 76.3 69.05 76.71 69.41 76.79 71.74 77.25 72.84 77.44 74.1 77.67 75.99 77.96 76.37 78.01 76.24 78.11 76.41 78.02 76.51 78.04 78.94 78.39 79.34 78.44 79.69 78.49 81.39 78.72 81.98 78.78 82.55 78.87 83.87 79.04 84.29 79.09 85 79.2 86.3 79.38 86.36 79.39 87.06 79.5 88.02 79.65 88.77 79.82 88.86 79.84 89.45 79.94 90.16 80.14 90.64 80.25 90.98 80.38 91.37 80.53 91.59 80.6 91.83 80.72 92.34 80.98 92.75 81.29 92.91 81.39 93.01 81.5 93.31 81.85 93.53 82.23 93.59 82.34 93.73 82.76 93.77 82.87 93.85 83.32 93.87 83.43 93.88 83.55 93.88 83.56 93.88 83.6 93.89 83.64 93.89 90.92 103.64 86.19 103.64 83.49 103.4 81.7"/><polygon class="cls-3" points="93.89 111.09 93.88 111.19 93.87 111.27 93.87 111.31 93.79 111.77 93.77 111.89 93.63 112.32 93.59 112.44 93.38 112.85 93.31 112.97 93.21 113.08 92.91 113.47 91.37 114.87 88.86 117.16 87.26 118.62 88.86 118.6 91.37 118.5 93.88 118.34 96.03 117.91 98.1 117.09 99.96 115.92 101.51 114.47 102.67 112.81 103.4 111.01 103.64 109.17 103.64 102.25 93.89 106.82 93.89 111.09"/><polygon class="cls-3" points="23.09 52.42 23.45 52.65 23.48 52.67 24.02 53.05 24.43 53.34 24.63 53.47 24.74 53.55 25.65 54.21 26.03 54.48 26.67 54.97 26.75 55.03 27.65 55.69 28.07 56.01 28.98 56.7 29.53 57.1 29.62 57.17 31.36 58.48 31.42 58.52 31.69 58.71 33.51 60.05 33.82 60.28 34.17 60.52 35.91 61.77 36.35 62.09 37 62.54 38.16 63.34 39.62 61.93 39.44 61.73 38.43 60.47 38.35 60.36 37.53 59.21 36.85 58.12 36.72 57.92 36.02 56.63 35.74 56.02 35.43 55.34 35.04 54.31 34.97 54.11 34.94 54.12 34.79 54.18 34.94 54.1 34.96 54.09 34.94 54.04 34.56 52.77 34.51 52.56 34.47 52.38 34.28 51.52 34.25 51.23 34.21 50.95 34.12 50.32 34.11 50.12 34.1 49.8 34.07 49.22 34.07 49.2 34.07 48.92 34.07 48.54 34.07 48.29 34.07 48.06 34.07 47.89 34.07 47.76 34.07 47.7 34.07 47.62 25.25 50.89 24.8 51.05 22.78 52.22 22.86 52.27 23.09 52.42"/><polygon class="cls-4" points="56.47 71.5 58.48 72.25 60.55 72.94 62.69 73.58 64.88 74.16 67.12 74.69 69.41 75.15 71.74 75.56 74.1 75.9 76.51 76.18 78.94 76.4 81.39 76.56 83.87 76.65 86.36 76.69 88.86 76.65 91.37 76.56 93.88 76.4 96.03 76.37 98.1 76.75 99.96 77.52 101.51 78.65 102.67 80.06 103.4 81.7 101.43 75.53 100.7 73.89 99.54 72.47 97.99 71.35 96.13 70.58 94.06 70.2 91.88 70.23 91.6 70.24 89.58 70.32 87.55 70.35 85.54 70.32 83.53 70.25 81.54 70.12 79.57 69.94 77.62 69.71 75.7 69.43 73.81 69.1 71.95 68.73 70.13 68.3 68.34 67.83 66.61 67.31 64.92 66.74 63.28 66.14 61.69 65.48 60.16 64.79 58.69 64.05 57.37 63.32 55.12 66.89 53.11 70.06 54.52 70.7 56.47 71.5"/><polygon class="cls-3" points="51.08 48.97 53.01 45.98 54.67 43.41 58.26 38.09 58.5 37.76 61.02 34.24 58.5 35.56 53.01 38.48 47.37 41.48 46.62 41.88 46.66 41.95 46.88 42.81 47.01 44.11 47.06 45.78 47.06 53.47 47.2 53.74 47.37 54.02 47.51 54.26 48.1 53.68 51.08 48.97"/><polygon class="cls-4" points="47.37 54.02 47.2 53.74 47.06 53.47 46.63 52.65 46.15 51.54 45.75 50.41 45.44 49.27 45.25 48.31 45.22 48.15 45.22 48.13 45.09 46.97 45.04 45.8 45.09 44.64 45.22 43.47 45.25 43.3 45.65 42.25 46.04 41.66 46.38 41.55 45.8 41.49 45.69 41.48 45.56 41.47 35.69 40.42 35.34 40.52 34.96 41.11 34.56 42.15 34.29 43.6 34.12 45.05 34.07 46.49 34.07 47.62 34.07 47.7 34.07 47.76 34.07 47.89 34.07 48.06 34.07 48.29 34.07 48.54 34.07 48.92 34.07 49.2 34.07 49.22 34.1 49.8 34.11 50.12 34.12 50.32 34.21 50.95 34.25 51.23 34.28 51.52 34.47 52.38 34.51 52.56 34.56 52.77 34.94 54.04 34.96 54.09 34.94 54.1 34.94 54.12 34.97 54.11 35.04 54.31 35.43 55.34 35.74 56.02 36.02 56.63 36.72 57.92 36.85 58.12 37.53 59.21 38.35 60.36 38.43 60.47 39.44 61.73 44.08 65.27 44.83 64.54 46.37 63.05 51.24 58.32 47.51 54.26 47.37 54.02"/><polygon class="cls-3" points="47.01 44.11 46.88 42.81 46.66 41.95 46.62 41.88 46.39 41.57 46.38 41.55 46.04 41.66 45.66 42.25 45.25 43.3 45.22 43.47 45.09 44.64 45.04 45.8 45.09 46.97 45.22 48.13 45.22 48.15 45.25 48.31 45.44 49.27 45.75 50.41 46.15 51.54 46.63 52.65 47.06 53.47 47.06 45.78 47.01 44.11"/><polygon class="cls-5" points="45.8 41.49 46.38 41.55 46.39 41.57 46.62 41.88 47.37 41.48 53.01 38.48 58.5 35.56 61.02 34.24 58.5 37.76 58.26 38.09 54.67 43.41 53.01 45.98 51.08 48.97 48.1 53.68 44.31 59.71 43.89 60.37 42.22 63.01 41.75 63.75 41.59 64 40.61 65.55 40.3 66.04 40.29 66.07 40.23 66.32 40.23 66.76 40.23 67.05 40.23 67.07 42.95 68.65 42.97 68.63 44.48 69.51 44.47 69.52 45.47 70.1 51.26 73.44 51.51 73.59 51.78 73.43 51.53 73.28 51.53 72.56 51.85 72.05 52.13 72.21 52.38 72.35 52.38 72.06 51.99 71.83 52.35 71.26 52.64 70.8 53.11 70.06 55.12 66.89 57.37 63.32 58.72 61.17 62.31 55.49 65.9 49.95 69.18 45.08 69.47 44.64 73.02 39.69 73.04 39.66 76.58 35.1 76.89 34.75 80.11 31.04 80.27 30.87 83.27 27.79 83.59 27.45 85.96 25.27 87.03 24.29 88.45 23.11 90.39 21.5 90.83 21.18 92.04 20.28 93.2 19.98 95.64 19.46 98.13 19.02 100.61 18.64 103.02 18.33 105.3 18.08 106.77 17.95 106.73 17.46 106.72 17.25 105.19 17.39 102.86 17.64 100.41 17.95 97.88 18.34 95.33 18.79 93.52 19.18 93.68 19.06 96.86 16.9 99.94 14.98 102.89 13.27 105.73 11.75 108.47 10.43 111.11 9.32 113.69 8.4 116.19 7.68 118.64 7.17 121.05 6.86 123.4 6.76 125.65 6.87 125.68 6.87 127.41 7.13 127.78 7.19 129.41 7.63 129.78 7.72 131.38 8.39 131.6 8.48 133.23 9.46 134.64 10.65 135.85 12.01 136.89 13.49 137.76 15.03 138.49 16.59 139.1 18.1 139.61 19.52 140.04 20.81 140.4 21.97 140.65 22.84 140.96 22.65 140.69 21.71 140.35 20.63 140.32 20.54 139.9 19.25 139.38 17.82 138.77 16.3 138.03 14.73 137.15 13.17 136.11 11.68 134.88 10.3 133.45 9.09 131.81 8.11 120.77 1.74 118.93 0.97 116.92 0.43 114.77 0.11 112.5 0 110.14 0.1 107.71 0.41 105.24 0.93 102.72 1.65 100.13 2.57 97.47 3.7 94.72 5.02 91.86 6.54 88.9 8.27 85.81 10.19 82.61 12.36 79.31 14.82 75.92 17.62 72.46 20.81 68.95 24.42 65.4 28.51 62.16 32.69 57.71 35.02 52.22 37.92 46.57 40.93 45.56 41.47 45.69 41.48 45.8 41.49"/><polygon class="cls-4" points="43.15 60.83 41.54 62.38 40.74 63.15 41.59 64 41.75 63.75 42.22 63.01 43.89 60.37 44.31 59.71 43.15 60.83"/><polygon class="cls-3" points="37.77 63.06 39.74 64.42 39.74 65.36 40 65.2 40.61 65.55 41.59 64 39.52 61.87 37.77 63.06"/><path class="cls-6" d="M39.4,66.6v-1l.34-.19v-.94l-.18-.12-2-1.39-.07.81.29,2.37,0,0,0,0,0,0,0,.05.05,0,0,0,.06.05.11.07,6,3.41.35-.4-4.27-2.44-.32-.18ZM38.49,66v0Z"/><polygon class="cls-3" points="39.74 65.36 39.4 65.55 39.4 65.99 39.4 66.6 39.91 66.89 40.23 67.07 40.23 67.05 40.23 66.76 40.23 66.32 40.29 66.07 40.3 66.04 40.61 65.55 40 65.2 39.74 65.36"/><polygon class="cls-6" points="85.02 119.95 85.02 119.63 85.02 119.21 85.02 118.72 85.02 118.51 85.02 112.68 83.2 112.08 78.5 114.79 77.82 115.08 77.17 115.26 76.54 115.34 75.94 115.3 75.81 115.27 75.53 114.92 75.24 114.38 75.03 113.75 74.91 113.06 74.86 112.3 74.91 111.49 75.03 110.65 75.24 109.78 75.53 108.91 75.9 108.03 76.33 107.18 76.82 106.36 77.37 105.58 77.97 104.86 78.6 104.2 79.25 103.63 79.93 103.14 85.02 100.2 85.02 91.61 85 91.37 84.97 91.09 84.94 90.88 84.92 90.73 84.83 90.31 84.78 90.1 84.65 89.74 84.56 89.48 84.4 89.18 84.23 88.85 84.06 88.61 83.77 88.21 83.61 88.03 83.17 87.56 83.02 87.43 82.67 87.13 82.4 86.88 82.29 86.79 81.46 86.17 81.39 86.12 80.31 85.42 80.29 85.41 79.2 84.78 78.98 84.65 78.93 84.62 77.46 83.83 77.33 83.75 75.78 82.98 75.69 82.94 75.47 82.83 73.68 81.97 73.36 81.81 72.39 81.37 71.41 80.91 70.97 80.7 69.06 79.84 68.85 79.74 68.3 79.48 66.03 78.46 65.77 78.34 65.34 78.14 62.92 77.03 62.53 76.85 62.1 76.65 59.54 75.46 59.34 75.37 58.57 74.99 56.21 73.86 55.31 73.41 53.84 73.92 53.23 73.62 53.23 74.13 53.21 74.13 53.16 74.14 53.11 74.15 53.06 74.15 53.01 74.16 52.95 74.16 52.9 74.16 52.84 74.16 52.79 74.16 52.74 74.15 52.69 74.15 52.63 74.14 52.63 74.14 52.58 74.13 52.53 74.12 52.48 74.11 52.44 74.09 52.39 74.08 52.34 74.06 52.3 74.04 52.22 74 52.12 73.94 52.12 73.62 51.78 73.43 51.51 73.59 51.26 73.44 45.47 70.1 44.47 69.52 44.12 69.93 44.95 70.41 51.71 74.31 51.83 74.37 51.91 74.41 51.99 74.44 52.07 74.47 52.16 74.49 52.24 74.52 52.33 74.53 52.42 74.55 52.52 74.56 52.61 74.58 52.7 74.58 52.8 74.59 52.89 74.59 52.99 74.59 53.08 74.59 53.18 74.58 53.27 74.57 53.36 74.56 53.45 74.54 53.54 74.52 53.64 74.5 53.78 74.45 55.09 73.99 56.12 74.52 57.91 75.38 59.43 76.12 61.4 77.05 62.78 77.72 64.6 78.56 66.19 79.33 67.51 79.93 69.65 80.96 70.14 81.18 72.49 82.31 73.16 82.65 74.57 83.35 76.38 84.3 76.71 84.49 77.96 85.18 79.3 86 80.3 86.69 80.42 86.77 81.35 87.49 82.1 88.17 82.69 88.84 83.13 89.48 83.45 90.12 83.66 90.75 83.8 91.38 83.88 92.02 83.9 92.26 83.89 99.55 79.86 101.88 79.04 102.48 78.25 103.17 77.48 103.96 76.77 104.83 76.1 105.77 75.51 106.77 74.98 107.8 74.55 108.85 74.2 109.91 73.94 110.96 73.79 111.97 73.74 112.95 73.79 113.86 73.94 114.71 74.2 115.46 74.55 116.12 74.98 116.66 75.51 117.09 76.1 117.4 76.77 117.57 77.48 117.61 78.25 117.53 79.04 117.3 79.86 116.95 83.89 114.62 83.9 121.91 83.88 122.14 83.8 122.73 83.66 123.26 83.45 123.74 83.13 124.14 82.69 124.47 83.77 123.84 84.23 123.51 84.56 123.1 84.78 122.62 84.92 122.08 85 121.5 85.02 121.27 85.02 120.2 85.02 120.14 85.02 119.95"/><polygon class="cls-7" points="29.3 74.37 29.21 74.32 29.18 74.3 29.07 74.41 29.05 74.42 29.41 74.47 29.36 74.42 29.3 74.37"/><polygon class="cls-7" points="27.51 73.6 27.48 73.6 27.36 73.56 27.24 73.54 27.5 73.61 27.51 73.6"/><polygon class="cls-3" points="126.72 8.66 127.46 10.22 128.07 11.73 128.57 13.15 129 14.44 129.36 15.6 129.41 15.77 129.62 16.47 140.65 22.84 140.4 21.97 140.04 20.81 139.61 19.52 139.1 18.1 138.49 16.59 137.76 15.03 136.89 13.49 135.85 12.01 134.64 10.65 133.23 9.46 131.6 8.48 131.38 8.39 129.78 7.72 129.41 7.63 127.78 7.19 127.41 7.13 125.68 6.87 125.85 7.12 126.72 8.66"/><polygon class="cls-6" points="19.31 51.66 19.88 51.81 19.96 51.85 20.6 52.11 21.47 52.57 22.28 53.07 22.5 53.19 23.73 53.99 24.68 54.67 25.16 54.99 26.82 56.17 27.16 56.43 28.74 57.55 29.72 58.27 30.95 59.13 32.35 60.15 33.47 60.92 35.05 62.05 36.33 62.92 37.65 63.83 38.16 63.34 37 62.54 36.35 62.09 35.91 61.77 34.17 60.52 33.82 60.28 33.51 60.05 31.69 58.71 31.42 58.52 31.36 58.48 29.62 57.17 29.53 57.1 28.98 56.7 28.07 56.01 27.65 55.69 26.75 55.03 26.67 54.97 26.03 54.48 25.65 54.21 24.74 53.55 24.63 53.47 24.43 53.34 24.02 53.05 23.48 52.67 23.45 52.65 23.09 52.42 22.86 52.27 22.78 52.22 22.44 52 22.27 51.91 21.61 51.53 20.92 51.22 20.36 51.06 20.19 51.05 19.91 51.04 19.57 51.14 18.48 51.77 18.84 51.65 19.31 51.66"/><polygon class="cls-5" points="126.75 19.21 125.02 18.8 123.3 18.43 121.62 18.1 120.03 17.81 118.56 17.56 117.77 17.43 117.71 17.42 117.59 18.14 118.15 18.22 119.59 18.47 121.16 18.76 122.82 19.09 124.51 19.45 126.2 19.84 127.85 20.27 128.66 20.5 128.63 19.7 128.44 19.64 126.75 19.21"/><polygon class="cls-8" points="34.79 54.18 34.94 54.12 34.94 54.1 34.79 54.18"/><path class="cls-9" d="M79.85,117l-.81.35-.79.23-.77.09-.71-.05-.67-.17-.59-.31-.53-.43-.43-.54-.35-.66-.26-.75-.15-.84-.05-.92.05-1,.15-1,.26-1,.35-1.06.43-1,.53-1,.59-1,.67-.94.71-.87.77-.79.79-.69.81-.6,4-2.33V92.26l0-.24-.08-.64-.14-.63-.21-.63-.32-.64-.44-.64-.59-.66-.75-.69-.93-.72-.12-.08-1-.69L78,85.18l-1.25-.69-.33-.19-1.81-1-1.41-.7-.67-.34-2.35-1.13L69.65,81l-2.14-1-1.32-.6-1.59-.77-1.82-.84-1.38-.67-2-.93-1.52-.74-1.79-.87-1-.52-1.31.46-.14,0-.1,0-.09,0-.09,0h-.84l-.1,0-.09,0-.08,0-.09,0-.09,0-.08,0-.08,0-.08,0-.12-.06L45,70.4l-.83-.47-1.52-.88L38.18,66.5l-.11-.07L38,66.38l0,0-.05,0,0-.05,0,0,0,0,0,0,0,0-.09-2.22-1.32-.91-1.28-.87-1.58-1.13-1.12-.77-1.4-1-1.23-.86-1-.72-1.58-1.12-.34-.26L25.16,55l-.48-.32L23.73,54l-1.23-.81-.22-.12-.81-.5-.87-.46L20,51.85l-.08,0-.57-.16h-.47l-.36.12-11,6.34L5.83,59.22l-.36.29-.21.16h0L4.9,60l-.42.58-.24.33-.16.42-.21.6-.09.45-.06.52V93.32l0,.55.08.49L4,94.8l.16.43.24.46.34.52.47.61.65.71.83.8,1,.89,1.25,1,1.48,1.09,1.72,1.2,2,1.31,2.25,1.43,2.54,1.57,2.84,1.7,3.17,1.85,10.79,6.23,10.78,6.22.45.26,2.72,1.55,2.85,1.59.45.26,2.55,1.37L57.79,129l2,1,1.74.8,1.5.62,1.27.46,1.06.31.87.16.66.13.72,0,.57-.06.72-.08.46-.18.68-.27,8.4-4.85,4.26-2.61.44-.33.32-.4.21-.48.14-.53.08-.59,0-.23v-7.29ZM37.79,102.47l-.46.26.07,0,.46-.26Z"/><path class="cls-3" d="M91.37,92.14l.51-.25,2-1V83.56h0v-.12l0-.11-.08-.45,0-.11-.14-.42-.06-.11-.22-.38L93,81.5l-.1-.11-.16-.1L92.34,81l-.51-.26-.24-.12-.22-.07L91,80.38l-.34-.12-.48-.13-.71-.19-.59-.1-.09,0L88,79.65l-1-.15-.71-.11H86.3L85,79.2l-.71-.11-.42,0-1.32-.17L82,78.78l-.59-.06-1.7-.23-.35,0-.4,0L76.51,78l-.1,0-.17.09.13-.1L76,78l-1.89-.29-1.26-.23-1.1-.19-2.33-.46-.36-.08-1.93-.42-2-.5-.2-.05-2.19-.59L61,74.63l-.42-.12-2.07-.7-2-.75-1.94-.8-1.88-.85-.29-.15-.36.58.39.22v.29l-.25-.14-.28-.16-.32.51v.72l.25.15.34.19v.32l.1.06.08,0,.05,0,0,0h0l0,0h.15v0h.6v-.51l.62.3,1.46-.51.9.45L58.57,75l.78.38.19.09,2.56,1.19.43.2.39.18,2.42,1.11.43.2.26.12,2.27,1,.55.26.21.1L71,80.7l.43.21,1,.46,1,.44.32.16,1.79.86.22.11.09,0,1.55.77.13.08,1.47.79.06,0,.21.13,1.09.63h0l1.08.7.07,0,.83.62.11.09.27.24.35.31.15.13.44.47.16.18.29.4.17.24.17.33.16.3.09.26.13.36,0,.21.09.42,0,.15,0,.21,0,.28,0,.24v8.59l-5.09,2.94-.68.49-.65.57-.63.66-.6.72-.55.78-.49.82-.43.85-.37.88-.29.87-.21.87-.12.84,0,.81,0,.76.12.69.21.63.29.54.28.35.13,0,.6,0,.63-.08.65-.18.68-.29,4.7-2.71,1.82.6v7.52l1.21-.7.34-.26.69-.62,1.6-1.46,2.51-2.29,1.54-1.4.3-.39.1-.12.07-.11.21-.41,0-.12.14-.43,0-.12.08-.46v-4.49L91.38,108l-1.72.81V93.71Zm-9.11,15.35-.07.44-.11.45-.15.45-.2.45-.23.43-.26.42-.29.4-.32.36-.33.32-.34.27-.35.23-.35.18-.34.12-.33.06h-.32L78,112l-.26-.11-.72-.41-.23-.17-.19-.23-.16-.27-.11-.32-.07-.36,0-.39,0-.41.07-.44.11-.44.16-.46.19-.45.23-.43.27-.42.29-.39.31-.36.33-.32.35-.28.35-.23.34-.17.35-.12.33-.07h.31l.29.06.27.11.71.42.23.17.2.22.15.27.11.32.07.36,0,.39Z"/><path class="cls-6" d="M82.19,106.33l-.11-.32-.15-.27-.2-.22-.23-.17-.71-.42-.27-.11-.29-.06h-.31l-.33.07-.35.12-.34.17-.35.23-.35.28-.33.32-.31.36-.29.39-.27.42-.23.43-.19.45-.16.46-.11.44-.07.44,0,.41,0,.39.07.36.11.32.16.27.19.23.23.17.72.41L78,112l.29.06h.32l.33-.06.34-.12.35-.18.35-.23.34-.27.33-.32.32-.36.29-.4.26-.42.23-.43.2-.45.15-.45.11-.45.07-.44,0-.41,0-.39ZM80,111.16l-.7.4v-5.47l.7-.41Z"/><polygon class="cls-10" points="79.26 111.56 79.96 111.16 79.96 105.68 79.26 106.09 79.26 111.56"/><polyline class="cls-3" points="136.32 25.11 136.22 25.05 136.12 24.99 136.12 38.78 136.22 38.84 136.32 38.9"/><polygon class="cls-3" points="110.91 17.69 111.54 17.68 111.53 17.57 111.14 17.57 110.91 17.57 109.7 17.57 109.29 17.57 108.14 17.57 108.09 17.57 108.09 17.59 108.04 17.85 109.3 17.76 110.91 17.69"/><polygon class="cls-3" points="114.6 17.75 115.7 17.86 116.34 17.95 116.31 17.58 115.84 17.57 114.67 17.57 113.73 17.57 113.51 17.57 112.88 17.57 112.87 17.67 113.48 17.68 114.6 17.75"/><path class="cls-3" d="M148.81,33.43l-1.4.07-.63,0v1.1l-.41-.7-.6-1-.67-1-.74-1-.79-1-.84-1-.89-1,.9-.52.17.16.31.34-.16-5.68-2.7-1.56.34,1.08.27.94-.31.19-11-6.37-.21-.7-.88.54.1,3.39,0,.8-.81-.23-1.65-.43-1.69-.39-1.69-.37-1.66-.32-1.57-.29-1.44-.25-.56-.08.12-.72h.06l-.15-2H106.85l-.18,1.17,0,.67v.21l0,.49-1.47.13-2.28.25-2.41.31L98.13,19l-2.49.44L93.2,20l-1.16.3-1.21.9-.44.33-1.94,1.6L87,24.29l-1.07,1-2.37,2.18-.32.34-3,3.08-.16.17-3.22,3.71-.31.35L73,39.66l0,0-3.54,5-.3.44L73,43.13l3.87-1.91,3.38-1.58,3-1.31L86,37.26l2.49-.87,2.38-.72,2.37-.6,2.44-.52,2.49-.45,2.48-.37,2.41-.32,2.28-.24,2.12-.19.5,0c-.1-1.35-.19-2.4-.25-3.29.06.88.15,1.94.25,3.29l.13,1.74h10.77l.18-1.17v-.07l.59.1,1.57.29,1.66.32,1.69.36,1.69.4,1.65.43,1.25.36.05,1.73,12.42,7.17,1.13-.7,0,0,.84,1,.79,1,.74,1,.67,1,.59.94v0l.08-.17.23-.63.12-.32.22-.6.13-.43.12-.4.21-.72.14-.6.12-.51.09-.39.25-1.42.12-1,1,0h.26l0,4.86,0,9.49,0,.48-.1.85h.29l.13-17.24Zm-41.3-5.76c0,.5.09,1.06.14,1.72C107.6,28.73,107.55,28.17,107.51,27.67Zm4-10-.64,0-1.6.07-1.26.09,0-.26v0h3.44v.1c.33,4.36.57,7.54.86,11.35C112.11,25.21,111.87,22,111.54,17.67Zm4.16.19-1.1-.11-1.11-.07h-.62v-.1h3.43l0,.37Zm14.85.83,9.34,5.4v.65l-9.16-5.3-.15-.57Zm.2,3.2h0l.11.07Zm5.57,17-.1-.06-.1-.06V25l.1.06.1.06ZM140,27.22h0l.42,14.43Z"/><polygon class="cls-3" points="139.91 24.73 139.9 24.24 139.9 24.09 130.55 18.69 130.6 18.87 130.75 19.44 139.91 24.73"/><polygon class="cls-5" points="149.47 46.63 149.44 41.77 149.18 41.78 148.19 41.82 148.07 42.77 147.82 44.19 147.73 44.59 147.61 45.09 147.47 45.69 147.26 46.41 147.14 46.81 147.01 47.24 146.79 47.84 146.67 48.16 146.44 48.79 146.36 48.96 146.35 48.99 145.74 50.32 144.9 51.8 143.86 53.3 142.57 54.86 140.96 56.55 136.54 60.57 133.6 63.02 130.14 65.8 126.22 68.88 121.95 72.19 117.42 75.67 112.75 79.24 108.04 82.84 103.64 86.19 93.89 90.92 91.88 91.89 91.37 92.14 89.66 93.71 89.66 108.8 91.38 108 93.89 106.82 103.64 102.25 104.34 101.93 109 98.37 113.71 94.78 118.38 91.21 122.91 87.74 127.18 84.43 131.11 81.35 134.59 78.56 137.54 76.11 139.99 73.96 142.01 72.05 143.66 70.32 144.99 68.71 146.05 67.17 146.92 65.64 147.64 64.07 148.23 62.49 148.69 60.91 149.05 59.39 149.31 57.94 149.37 57.45 149.47 56.6 149.5 56.12 149.47 46.63"/><path class="cls-11" d="M54.4,110.54v-1.11"/><path class="cls-12" d="M69,132.27c4.16-7.56,2.84-33,.19-33.45-27.66-5.23-55.33-19.44-65-38.13-5.23,5.23-4.48,26.92-3,37.38a8.62,8.62,0,0,0,1.5,3.74c10.46,15,44.34,30.37,65.86,30.75Z"/></g></g></g></g></svg>